<svg width="24" height="21" viewBox="0 0 24 21" fill="none" xmlns="http://www.w3.org/2000/svg">
<path d="M4.47657 2.34794L6.47826 13.8361C6.51481 14.0768 6.63977 14.2971 6.83074 14.4576C7.03219 14.6285 7.29339 14.7208 7.56264 14.7164H19.4024C19.6288 14.7164 19.8494 14.6483 20.033 14.5218C20.2166 14.3953 20.3539 14.2167 20.4254 14.0114L23.6591 4.73504C23.7131 4.58009 23.7278 4.4151 23.702 4.25366C23.6762 4.09222 23.6106 3.93895 23.5107 3.80648C23.4108 3.67401 23.2794 3.56614 23.1274 3.49176C22.9753 3.41737 22.807 3.3786 22.6362 3.37864H6.84152L6.4567 1.16263C6.4172 0.909443 6.2799 0.679601 6.07189 0.518444C5.87474 0.364426 5.62686 0.282253 5.37232 0.286536H1.07791C0.792033 0.286536 0.517862 0.395128 0.315714 0.588422C0.113566 0.781716 0 1.04388 0 1.31724C0 1.5906 0.113566 1.85276 0.315714 2.04605C0.517862 2.23935 0.792033 2.34794 1.07791 2.34794H4.47657ZM8.45839 12.655L7.20046 5.44004H21.1411L18.6253 12.655H8.45839Z" fill="#00A84F"/>
<path d="M10.7791 18.8392C10.7791 19.3859 10.552 19.9102 10.1477 20.2968C9.74341 20.6834 9.19507 20.9006 8.62331 20.9006C8.05155 20.9006 7.5032 20.6834 7.09891 20.2968C6.69461 19.9102 6.46748 19.3859 6.46748 18.8392C6.46748 18.2924 6.69461 17.7681 7.09891 17.3815C7.5032 16.9949 8.05155 16.7778 8.62331 16.7778C9.19507 16.7778 9.74341 16.9949 10.1477 17.3815C10.552 17.7681 10.7791 18.2924 10.7791 18.8392Z" fill="#00A84F"/>
<path d="M20.4804 18.8392C20.4804 19.3859 20.2532 19.9102 19.8489 20.2968C19.4446 20.6834 18.8963 20.9006 18.3245 20.9006C17.7528 20.9006 17.2044 20.6834 16.8001 20.2968C16.3958 19.9102 16.1687 19.3859 16.1687 18.8392C16.1687 18.2924 16.3958 17.7681 16.8001 17.3815C17.2044 16.9949 17.7528 16.7778 18.3245 16.7778C18.8963 16.7778 19.4446 16.9949 19.8489 17.3815C20.2532 17.7681 20.4804 18.2924 20.4804 18.8392Z" fill="#00A84F"/>
</svg>
