<svg width="19" height="12" viewBox="0 0 19 12" fill="none" xmlns="http://www.w3.org/2000/svg">
<path d="M18.886 6.37037L16.8215 2.96296C16.6686 2.74074 16.4392 2.66667 16.2098 2.66667H12.0809V0.666667C12.0809 0.296296 11.775 0 11.3927 0H0.688152C0.305845 0 0 0.296296 0 0.666667V10C0 10.3704 0.305845 10.6667 0.688152 10.6667H2.90553C3.21138 11.4074 3.97599 12 4.81706 12C5.7346 12 6.49921 11.4074 6.7286 10.6667H11.3163H12.0044H13.5337C13.8395 11.4074 14.6041 12 15.4452 12C16.3627 12 17.1273 11.4074 17.3567 10.6667H18.1978C18.5801 10.6667 18.886 10.3704 18.886 10V6.66667C18.9624 6.59259 18.9624 6.44444 18.886 6.37037ZM4.81706 11.037C4.20537 11.037 3.74661 10.5926 3.74661 10C3.74661 9.40741 4.20537 8.96296 4.81706 8.96296C5.42876 8.96296 5.88752 9.40741 5.88752 10C5.88752 10.5926 5.42876 11.037 4.81706 11.037ZM15.5217 11.037C14.91 11.037 14.4512 10.5926 14.4512 10C14.4512 9.40741 14.91 8.96296 15.5217 8.96296C16.1333 8.96296 16.5921 9.40741 16.5921 10C16.5921 10.5926 16.1333 11.037 15.5217 11.037ZM13.4572 6.66667V4H15.8275L17.5096 6.66667H13.4572Z" fill="#00A84F"/>
</svg>
