<svg width="26" height="20" viewBox="0 0 26 20" fill="none" xmlns="http://www.w3.org/2000/svg">
<path d="M1 1H2.49999C3.88016 1 5.07807 1.98413 5.39017 3.37438L6.71788 9.28875C7.134 11.1424 8.73122 12.4546 10.5714 12.4546H19.1388C20.8464 12.4546 22.3612 11.3216 22.8959 9.64465L25 3.04546M12.143 3.45457H17.2859M14.7146 1.00006V5.90917M10.4287 19C11.3754 19 12.1429 18.2674 12.1429 17.3636C12.1429 16.4599 11.3754 15.7273 10.4287 15.7273C9.48189 15.7273 8.71437 16.4599 8.71437 17.3636C8.71437 18.2674 9.48189 19 10.4287 19ZM18.9998 19C19.9466 19 20.7141 18.2674 20.7141 17.3636C20.7141 16.4599 19.9466 15.7273 18.9998 15.7273C18.0531 15.7273 17.2856 16.4599 17.2856 17.3636C17.2856 18.2674 18.0531 19 18.9998 19Z" stroke="white" stroke-width="1.5" stroke-linecap="round"/>
</svg>
