<svg width="14" height="12" viewBox="0 0 14 12" fill="none" xmlns="http://www.w3.org/2000/svg">
<path d="M0.379349 0.655884V0.655884C1.5563 0.655884 2.57333 1.47806 2.81993 2.62889L3.0648 3.77159C3.46 5.61587 5.08985 6.93347 6.976 6.93347H8.54158C10.2343 6.93347 11.7438 5.86795 12.3106 4.27294L12.5256 3.66819C12.7569 3.0172 12.2742 2.33332 11.5833 2.33332H4.95236" stroke="#00A84F" stroke-linecap="round"/>
<path fill-rule="evenodd" clip-rule="evenodd" d="M5.31168 10.5206C5.80697 10.5206 6.20848 10.1191 6.20848 9.62385C6.20848 9.12856 5.80697 8.72705 5.31168 8.72705C4.8164 8.72705 4.41489 9.12856 4.41489 9.62385C4.41489 10.1191 4.8164 10.5206 5.31168 10.5206Z" stroke="#00A84F" stroke-linecap="round"/>
<path fill-rule="evenodd" clip-rule="evenodd" d="M9.79583 10.5206C10.2911 10.5206 10.6926 10.1191 10.6926 9.62385C10.6926 9.12856 10.2911 8.72705 9.79583 8.72705C9.30054 8.72705 8.89903 9.12856 8.89903 9.62385C8.89903 10.1191 9.30054 10.5206 9.79583 10.5206Z" stroke="#00A84F" stroke-linecap="round"/>
</svg>
