<svg width="40" height="40" viewBox="0 0 40 40" fill="none" xmlns="http://www.w3.org/2000/svg">
<path d="M39.9725 18.9262C39.3282 7.90195 29.9505 -0.545208 18.9262 0.0274806C7.90195 0.671755 -0.545208 10.0495 0.0274806 21.0738C0.600169 32.098 10.0495 40.5452 21.0738 39.9725C32.098 39.3282 40.5452 29.9505 39.9725 18.9262Z" fill="#00A84F"/>
<path d="M6.40901 23.0347C6.77159 22.8186 7.06166 22.6025 7.42424 22.3863C11.3401 19.5768 18.2292 15.9027 24.8282 14.9662C25.5534 14.8941 26.206 14.8221 26.9312 14.75C27.5838 14.75 28.309 14.678 29.1067 14.75C32.2249 14.8221 34.4729 15.5425 35.7782 16.8392C35.6331 16.9833 35.198 16.7672 34.908 16.6231C34.6904 16.5511 34.5454 16.479 34.4004 16.479C32.5875 16.0468 30.702 15.9027 28.7441 16.0468C22.3626 16.407 14.8209 19.4327 6.98914 24.9078C6.77159 25.0518 6.62656 25.1959 6.40901 25.34C5.75636 25.8443 5.0312 26.3486 4.23351 26.4206C3.43583 24.8357 4.95868 23.8992 6.40901 23.0347Z" fill="#FFE40D"/>
<path d="M18.0113 37.7308C11.9924 37.3706 8.22154 33.4804 6.40863 31.031C7.78644 29.374 10.3245 28.4375 12.9351 27.4289L13.5878 27.2128C16.1984 26.2042 20.0417 24.9795 23.9576 24.7634C28.6712 24.5473 32.152 25.772 34.255 28.5095C31.2818 34.561 25.1179 38.091 18.0113 37.7308Z" fill="#FFE40D"/>
<path d="M35.7782 23.3229C35.7057 23.8272 35.5607 24.3314 35.5607 24.9078C34.4729 24.6196 33.6027 24.1874 32.7325 23.6831C31.7173 23.1788 30.7746 22.6025 29.5418 22.3863C27.7289 22.0982 24.8282 22.0261 22.7253 22.3143C17.4316 23.0347 12.718 25.4121 8.58455 27.5733C7.42428 28.1496 6.26402 28.798 5.17627 29.3023C5.10375 29.2302 4.95872 29.0861 4.8862 28.9421C4.74117 28.7259 4.52362 28.5098 4.52362 28.2217C4.52362 27.8615 5.24879 27.069 8.58455 25.1239C10.2524 24.1874 11.4852 23.539 13.0806 22.8186L13.3706 22.6745C17.7216 20.5853 22.4352 19.2165 26.4236 19.0004C30.557 18.7843 33.7478 19.7208 36.0683 21.738C35.9958 22.3143 35.8507 22.8186 35.7782 23.3229Z" fill="#FFE40D"/>
</svg>
