<svg width="40" height="40" viewBox="0 0 40 40" fill="none" xmlns="http://www.w3.org/2000/svg">
<path d="M40 3.51562H24.6875C22.1094 3.51562 20 5.625 20 8.20312L8.28125 16.4844L20 35.3125L40 30.625V3.51562Z" fill="#54D8FF"/>
<path d="M15.3125 0H4.6875V3.51562L0.78125 31.7969H20V4.6875C20 2.10938 17.8906 0 15.3125 0Z" fill="#C6F2FF"/>
<path d="M15.3125 27.1094H4.6875V3.51562H0V30.625L20 35.3125V31.7969C20 29.2188 17.8906 27.1094 15.3125 27.1094Z" fill="#8DE5FF"/>
<path d="M20 35.3125L15.3125 37.6562L20 40L40 35.3125V30.625H24.6875C22.1094 30.625 20 32.7344 20 35.3125Z" fill="#C6F2FF"/>
<path d="M15.3125 30.625H0V35.3125L20 40V35.3125C20 32.7344 17.8906 30.625 15.3125 30.625Z" fill="white"/>
<path d="M20 40H40V35.3125H24.6875C22.1094 35.3125 20 37.4219 20 40Z" fill="#8DE5FF"/>
<path d="M15.3125 35.3125H0V40H20C20 37.4219 17.8906 35.3125 15.3125 35.3125Z" fill="#C6F2FF"/>
<path d="M24.6875 8.20312H36.4844V25.9375H24.6875V8.20312Z" fill="#5C5CCC"/>
<path d="M8.20312 2.92969H15.3125V12.3828H8.20312V2.92969Z" fill="#54ECD3"/>
<path d="M8.20312 14.7266H15.3125V24.1797H8.20312V14.7266Z" fill="#FF6C4A"/>
</svg>
