<svg width="143" height="19" viewBox="0 0 143 19" fill="none" xmlns="http://www.w3.org/2000/svg">
<path d="M12.392 9.24H16.592L15.176 16.32C14.312 16.976 13.304 17.48 12.152 17.832C11.016 18.168 9.816 18.336 8.552 18.336C6.856 18.336 5.368 18.032 4.088 17.424C2.824 16.8 1.84 15.928 1.136 14.808C0.448 13.688 0.104 12.4 0.104 10.944C0.104 9.008 0.552 7.28 1.448 5.76C2.344 4.224 3.6 3.024 5.216 2.16C6.832 1.296 8.688 0.863999 10.784 0.863999C14.112 0.863999 16.552 1.896 18.104 3.96L14.696 6.648C14.152 5.976 13.552 5.504 12.896 5.232C12.24 4.944 11.464 4.8 10.568 4.8C9.432 4.8 8.432 5.056 7.568 5.568C6.72 6.064 6.064 6.752 5.6 7.632C5.136 8.512 4.904 9.512 4.904 10.632C4.904 11.784 5.28 12.704 6.032 13.392C6.784 14.064 7.84 14.4 9.2 14.4C10.016 14.4 10.76 14.264 11.432 13.992L12.392 9.24ZM24.2608 6.432C25.3488 5.328 26.9168 4.776 28.9648 4.776L28.1728 8.88C27.7728 8.832 27.4288 8.808 27.1408 8.808C26.1168 8.808 25.2928 9.056 24.6688 9.552C24.0608 10.032 23.6528 10.8 23.4448 11.856L22.1968 18H17.6368L20.2288 4.992H24.5488L24.2608 6.432ZM42.8253 10.488C42.8253 11.112 42.7373 11.824 42.5613 12.624H33.0093C33.1693 14.032 34.1533 14.736 35.9613 14.736C36.5373 14.736 37.0973 14.648 37.6413 14.472C38.1853 14.296 38.6733 14.032 39.1053 13.68L41.0013 16.536C39.4813 17.656 37.6333 18.216 35.4573 18.216C34.0813 18.216 32.8653 17.976 31.8093 17.496C30.7693 17 29.9613 16.312 29.3853 15.432C28.8253 14.536 28.5453 13.488 28.5453 12.288C28.5453 10.864 28.8733 9.584 29.5293 8.448C30.2013 7.296 31.1293 6.4 32.3133 5.76C33.5133 5.104 34.8813 4.776 36.4173 4.776C37.7133 4.776 38.8413 5.016 39.8013 5.496C40.7773 5.96 41.5213 6.624 42.0333 7.488C42.5613 8.352 42.8253 9.352 42.8253 10.488ZM36.2013 8.016C35.4653 8.016 34.8493 8.216 34.3533 8.616C33.8573 9 33.4973 9.536 33.2733 10.224H38.6253C38.6413 9.536 38.4253 9 37.9773 8.616C37.5293 8.216 36.9373 8.016 36.2013 8.016ZM58.13 10.488C58.13 11.112 58.042 11.824 57.866 12.624H48.314C48.474 14.032 49.458 14.736 51.266 14.736C51.842 14.736 52.402 14.648 52.946 14.472C53.49 14.296 53.978 14.032 54.41 13.68L56.306 16.536C54.786 17.656 52.938 18.216 50.762 18.216C49.386 18.216 48.17 17.976 47.114 17.496C46.074 17 45.266 16.312 44.69 15.432C44.13 14.536 43.85 13.488 43.85 12.288C43.85 10.864 44.178 9.584 44.834 8.448C45.506 7.296 46.434 6.4 47.618 5.76C48.818 5.104 50.186 4.776 51.722 4.776C53.018 4.776 54.146 5.016 55.106 5.496C56.082 5.96 56.826 6.624 57.338 7.488C57.866 8.352 58.13 9.352 58.13 10.488ZM51.506 8.016C50.77 8.016 50.154 8.216 49.658 8.616C49.162 9 48.802 9.536 48.578 10.224H53.93C53.946 9.536 53.73 9 53.282 8.616C52.834 8.216 52.242 8.016 51.506 8.016ZM69.4507 4.776C70.8747 4.776 72.0107 5.16 72.8587 5.928C73.7227 6.68 74.1547 7.768 74.1547 9.192C74.1547 9.72 74.0987 10.256 73.9867 10.8L72.5467 18H67.9867L69.3307 11.232C69.3947 10.96 69.4267 10.672 69.4267 10.368C69.4267 9.216 68.8267 8.64 67.6267 8.64C66.8267 8.64 66.1707 8.888 65.6587 9.384C65.1467 9.864 64.7867 10.592 64.5787 11.568L63.2827 18H58.7227L61.3147 4.992H65.6347L65.3707 6.336C65.9307 5.808 66.5627 5.416 67.2667 5.16C67.9707 4.904 68.6987 4.776 69.4507 4.776ZM81.9136 18.336C80.5216 18.336 79.2016 18.168 77.9536 17.832C76.7056 17.496 75.6896 17.064 74.9056 16.536L76.7776 12.984C77.6256 13.528 78.5296 13.944 79.4896 14.232C80.4496 14.504 81.4096 14.64 82.3696 14.64C83.2816 14.64 83.9856 14.512 84.4816 14.256C84.9936 13.984 85.2496 13.616 85.2496 13.152C85.2496 12.752 85.0176 12.44 84.5536 12.216C84.1056 11.992 83.4016 11.752 82.4416 11.496C81.3536 11.208 80.4496 10.92 79.7296 10.632C79.0096 10.328 78.3856 9.872 77.8576 9.264C77.3456 8.656 77.0896 7.856 77.0896 6.864C77.0896 5.664 77.4176 4.616 78.0736 3.72C78.7296 2.808 79.6656 2.104 80.8816 1.608C82.0976 1.112 83.5216 0.863999 85.1536 0.863999C86.3536 0.863999 87.4736 0.991999 88.5136 1.248C89.5536 1.488 90.4496 1.84 91.2016 2.304L89.4736 5.832C88.8176 5.416 88.0896 5.104 87.2896 4.896C86.5056 4.672 85.6976 4.56 84.8656 4.56C83.9216 4.56 83.1776 4.712 82.6336 5.016C82.1056 5.32 81.8416 5.712 81.8416 6.192C81.8416 6.608 82.0736 6.928 82.5376 7.152C83.0016 7.376 83.7216 7.616 84.6976 7.872C85.7856 8.144 86.6816 8.424 87.3856 8.712C88.1056 9 88.7216 9.44 89.2336 10.032C89.7456 10.624 90.0016 11.4 90.0016 12.36C90.0016 13.544 89.6656 14.592 88.9936 15.504C88.3376 16.4 87.3936 17.096 86.1616 17.592C84.9456 18.088 83.5296 18.336 81.9136 18.336ZM97.0207 13.152C96.9887 13.376 96.9727 13.52 96.9727 13.584C96.9727 14.32 97.3727 14.688 98.1727 14.688C98.6047 14.688 99.0607 14.56 99.5407 14.304L100.117 17.448C99.2207 17.96 98.0927 18.216 96.7327 18.216C95.3887 18.216 94.3167 17.88 93.5167 17.208C92.7327 16.536 92.3407 15.6 92.3407 14.4C92.3407 13.936 92.3807 13.528 92.4607 13.176L93.3247 8.88H91.4047L92.1007 5.472H93.9967L94.6687 2.088H99.2287L98.5567 5.472H101.509L100.837 8.88H97.8847L97.0207 13.152ZM108.556 18.216C107.18 18.216 105.98 17.976 104.956 17.496C103.932 17 103.14 16.304 102.58 15.408C102.02 14.512 101.74 13.472 101.74 12.288C101.74 10.864 102.084 9.584 102.772 8.448C103.46 7.312 104.412 6.416 105.628 5.76C106.844 5.104 108.212 4.776 109.732 4.776C111.108 4.776 112.308 5.024 113.332 5.52C114.356 6 115.148 6.688 115.708 7.584C116.268 8.464 116.548 9.496 116.548 10.68C116.548 12.104 116.204 13.392 115.516 14.544C114.828 15.68 113.876 16.576 112.66 17.232C111.46 17.888 110.092 18.216 108.556 18.216ZM108.82 14.544C109.732 14.544 110.476 14.208 111.052 13.536C111.628 12.864 111.916 11.992 111.916 10.92C111.916 10.152 111.7 9.544 111.268 9.096C110.836 8.648 110.236 8.424 109.468 8.424C108.556 8.424 107.812 8.76 107.236 9.432C106.66 10.104 106.372 10.984 106.372 12.072C106.372 12.84 106.588 13.448 107.02 13.896C107.452 14.328 108.052 14.544 108.82 14.544ZM123.917 6.432C125.005 5.328 126.573 4.776 128.621 4.776L127.829 8.88C127.429 8.832 127.085 8.808 126.797 8.808C125.773 8.808 124.949 9.056 124.325 9.552C123.717 10.032 123.309 10.8 123.101 11.856L121.853 18H117.293L119.885 4.992H124.205L123.917 6.432ZM142.482 10.488C142.482 11.112 142.394 11.824 142.218 12.624H132.666C132.826 14.032 133.81 14.736 135.618 14.736C136.194 14.736 136.754 14.648 137.298 14.472C137.842 14.296 138.33 14.032 138.762 13.68L140.658 16.536C139.138 17.656 137.29 18.216 135.114 18.216C133.738 18.216 132.522 17.976 131.466 17.496C130.426 17 129.618 16.312 129.042 15.432C128.482 14.536 128.202 13.488 128.202 12.288C128.202 10.864 128.53 9.584 129.186 8.448C129.858 7.296 130.786 6.4 131.97 5.76C133.17 5.104 134.538 4.776 136.074 4.776C137.37 4.776 138.498 5.016 139.458 5.496C140.434 5.96 141.178 6.624 141.69 7.488C142.218 8.352 142.482 9.352 142.482 10.488ZM135.858 8.016C135.122 8.016 134.506 8.216 134.01 8.616C133.514 9 133.154 9.536 132.93 10.224H138.282C138.298 9.536 138.082 9 137.634 8.616C137.186 8.216 136.594 8.016 135.858 8.016Z" fill="#00A84F"/>
</svg>
