<svg width="25" height="45" viewBox="0 0 25 45" fill="none" xmlns="http://www.w3.org/2000/svg">
<g clip-path="url(#clip0)">
<path d="M5.66381 18.7692C5.05067 18.8954 4.22911 19.3515 3.77001 20.0888C3.74282 20.1289 3.75793 20.1806 3.80323 20.2064C3.84552 20.2293 3.89989 20.2179 3.92707 20.1748C4.35899 19.4806 5.13222 19.0532 5.7061 18.9356C5.75442 18.9241 5.78463 18.8811 5.77557 18.8352C5.76046 18.7893 5.71214 18.7577 5.66381 18.7692Z" fill="#221E1F"/>
<path d="M4.87853 18.4653C4.50399 18.5427 3.99958 18.8238 3.71869 19.2742C3.69452 19.3144 3.70962 19.3689 3.75191 19.3918C3.7942 19.4148 3.84856 19.4033 3.87575 19.3603C4.12946 18.9529 4.58252 18.7005 4.91779 18.6316C4.96612 18.623 4.99632 18.5771 4.98726 18.5284C4.97518 18.4854 4.92685 18.4567 4.87853 18.4653Z" fill="#221E1F"/>
<path d="M10.6566 1.53761C10.2247 2.77686 9.8139 4.11363 9.74443 5.51639C9.74141 5.56228 9.78067 5.60531 9.83202 5.60531C9.88035 5.60818 9.92263 5.57089 9.92565 5.52499C9.99512 4.14519 10.3999 2.81702 10.8257 1.59212C10.8408 1.54622 10.8167 1.49745 10.7684 1.48311C10.723 1.46877 10.6747 1.49458 10.6566 1.53761Z" fill="#221E1F"/>
<path d="M9.70213 2.26623C9.44238 3.01207 9.19772 3.81815 9.15544 4.66153C9.15242 4.70742 9.19168 4.74758 9.24001 4.75045C9.29136 4.75332 9.33364 4.71603 9.33364 4.67013C9.37593 3.84397 9.61756 3.05223 9.87128 2.31786C9.88638 2.27197 9.86221 2.2232 9.81389 2.20886C9.76858 2.19738 9.71723 2.22033 9.70213 2.26623Z" fill="#221E1F"/>
<path d="M16.7971 5.32415C16.7578 5.3557 16.7548 5.41021 16.788 5.44463C16.8213 5.48192 16.8787 5.48479 16.9149 5.45323C17.7002 4.79919 18.7755 4.57831 19.4913 4.65002C19.5396 4.65576 19.5849 4.62134 19.591 4.57257C19.597 4.5238 19.5608 4.48364 19.5125 4.47791C18.7573 4.40619 17.6217 4.63855 16.7971 5.32415Z" fill="#221E1F"/>
<path d="M17.0629 4.36029C17.0236 4.39185 17.0206 4.44635 17.0538 4.48077C17.0871 4.5152 17.1445 4.52093 17.1807 4.48938C17.6428 4.10499 18.2771 3.9759 18.7 4.01606C18.7483 4.0218 18.7936 3.98737 18.7997 3.94147C18.8057 3.89271 18.7694 3.85255 18.7181 3.84681C18.259 3.80091 17.5673 3.94147 17.0629 4.36029Z" fill="#221E1F"/>
<path d="M24.9244 7.76433C22.0581 5.69319 19.9015 4.95309 18.3278 5.50386C16.283 6.22102 15.4947 9.07529 14.8695 11.7861C14.652 11.4878 14.2352 11.2411 13.3411 11.2411C12.8911 11.2411 12.429 11.396 11.994 11.6829C10.7919 6.96112 10.9973 3.72245 12.7069 0.23421C12.7461 0.15102 12.7099 0.0534875 12.6223 0.0161954C12.5347 -0.0210966 12.432 0.0133268 12.3927 0.0965167C10.6288 3.69376 10.4295 7.02423 11.695 11.9037C11.6044 11.9755 11.5198 12.0529 11.4353 12.139C10.5895 12.9823 10.0851 14.2015 10.0851 15.4006C10.0851 15.4006 10.0881 15.4408 10.0881 15.4809C8.25778 17.0242 7.2852 18.5848 7.2852 20.0047C7.2852 20.3949 7.38488 20.7678 7.52986 21.1321C7.39092 20.9399 7.23083 20.7764 7.06169 20.6875C7.09794 20.6157 7.1221 20.5325 7.1221 20.4264C7.1221 20.3776 7.11606 20.3231 7.10398 20.2658C7.04659 19.999 6.8714 19.7953 6.61769 19.692C6.12234 19.4912 5.47597 19.6978 5.07426 19.9359C4.61515 20.2084 4.3705 20.6301 4.3705 21.1579C4.3705 21.2497 4.37956 21.3472 4.39768 21.4505C3.99899 21.3989 3.57915 21.4247 3.42511 21.7517C3.42511 21.7546 3.37678 21.9697 3.37678 21.9697C3.37678 22.2222 3.53384 22.4603 3.66674 22.6238C3.62748 22.6639 3.58821 22.707 3.56103 22.7586C3.50364 22.8676 3.47343 22.9881 3.47343 23.1114C3.47343 23.2893 3.53686 23.4643 3.65466 23.6134C3.95066 23.9892 4.59401 24.1728 5.01989 24.2933L5.21018 24.3478C5.29777 24.3765 5.37026 24.4224 5.45181 24.4798C5.53034 24.5343 5.63001 24.5859 5.74479 24.6289C5.73573 24.6748 5.72667 24.7351 5.72667 24.7351C5.72667 25.0076 5.84748 25.2399 6.07401 25.4035C6.22806 25.5153 6.41532 25.5698 6.62071 25.5842C6.65696 25.7563 6.68112 26.0489 6.69924 26.2612L6.75965 26.8464C6.78985 27.0787 6.90161 27.2681 7.07679 27.3972C7.34863 27.5951 7.75941 27.6553 8.33631 27.5836L8.57794 27.5549C8.58398 27.5549 9.28472 27.4488 9.5928 27.4029C9.63207 27.4603 9.66227 27.5033 9.68341 27.5348C9.35721 27.6725 8.50545 28.034 8.50545 28.034C8.50545 28.034 8.34839 28.0971 8.25476 28.1373C8.17925 28.1229 7.35165 27.9709 7.14324 27.9336C7.08887 27.7242 6.98014 27.5434 6.79589 27.443C6.58749 27.3254 6.30659 27.3226 6.02267 27.3828C5.79312 26.8751 5.3612 26.2813 5.05613 26.0833C4.75107 25.8883 4.63932 25.8309 4.31009 25.9657C4.31009 25.9657 3.92952 26.0977 3.74225 26.1636C3.74527 26.1522 3.74829 26.1378 3.74829 26.1378C3.76037 26.0919 3.77246 26.0317 3.77246 25.9628C3.77246 25.8797 3.75131 25.7792 3.67882 25.6846C3.50062 25.458 3.15629 25.4436 2.74249 25.6157C2.57033 25.3949 1.89678 24.5314 1.89678 24.5314C1.86053 24.4855 1.84845 24.4425 1.84845 24.4023C1.84845 24.3507 1.86959 24.3048 1.89376 24.2704C1.92396 24.2245 1.93906 24.1728 1.93906 24.1241C1.93906 24.0409 1.8998 23.9605 1.82731 23.906L0.966488 23.2663C0.860773 23.1918 0.718814 23.1889 0.616119 23.2606L0.117751 23.6106C0.0150563 23.6794 -0.0272295 23.8085 0.0180767 23.9261L0.410731 24.8986C0.465099 25.0334 0.61914 25.1051 0.76412 25.0621C0.866814 25.0363 0.957427 25.0621 1.01784 25.1424C1.01784 25.1424 1.62494 25.9198 1.86657 26.2325C1.68233 26.439 1.56151 26.6427 1.56151 26.8206C1.56151 26.921 1.59171 27.0156 1.65514 27.0959C1.77294 27.2451 1.93 27.2767 2.03572 27.2881C1.83939 27.4402 1.67327 27.6754 1.53735 28.0024L1.48902 28.2463C1.48902 28.3725 1.53131 28.493 1.60984 28.5934C1.74878 28.7712 1.99343 28.8774 2.25319 28.9405C2.15351 29.0753 2.06592 29.2445 2.01759 29.4568C2.01759 29.4597 1.99343 29.6634 1.99343 29.6634C1.99343 29.9187 2.11727 30.1338 2.33474 30.2572C2.57335 30.392 2.86633 30.3776 3.10796 30.2543C3.11401 30.4149 3.16233 30.5641 3.25899 30.6846C3.41001 30.871 3.64258 30.9686 3.90233 30.9485C4.22854 30.9255 4.48225 30.6702 4.69368 30.4063C4.98364 30.4321 5.2736 30.3461 5.57867 30.1309C5.57867 30.1309 5.70552 30.0162 5.80218 29.9301C5.96226 29.9359 6.14046 29.8928 6.34283 29.7982C6.52104 29.715 6.65695 29.6117 6.77777 29.4998C8.23059 29.8842 9.00382 29.8068 10.0308 29.4539C10.0308 29.4568 10.0247 29.4654 10.0247 29.4654L10.0881 29.497L10.2241 29.7695C10.3811 30.0736 10.5473 30.4121 10.6046 30.7276C8.70178 31.1809 6.91973 31.6484 5.84748 33.4069C5.49107 33.9921 5.31891 34.7121 5.31891 35.6129C5.31891 36.5021 5.49107 37.4144 5.63001 38.1487C5.71458 38.5962 5.78707 38.9806 5.80822 39.279C5.81728 39.3937 5.90185 39.4941 6.01965 39.5228C6.09516 39.54 6.42136 39.6089 6.84422 39.6548C6.90161 40.4666 6.98014 41.7947 6.98014 42.1619C6.98014 42.4086 6.95296 42.4574 6.85328 42.5291C4.9323 42.6381 3.61841 43.3151 2.95694 44.54C2.9358 44.5773 2.92372 44.6232 2.92372 44.6662C2.92372 44.7121 2.9358 44.7552 2.95996 44.7982C3.00829 44.8814 3.09286 44.9301 3.18649 44.9387C5.00781 45.0822 8.41786 44.9732 9.80121 44.9215L10.0066 44.8297C10.0096 44.8269 10.0761 44.6232 10.0761 44.6232C10.064 44.4798 10.0126 44.3134 9.93411 44.1384C9.92203 43.8401 9.81933 43.3581 9.623 42.6926C9.47802 42.1963 9.40251 41.6829 9.40251 41.1694C9.40251 40.4494 9.54749 39.8928 9.65321 39.5744C9.79819 39.5343 10.0851 39.4539 10.0851 39.4539C10.0791 39.4568 10.3358 39.3908 10.4778 39.3564C12.0393 40.0535 13.4015 42.3455 13.4348 44.3392L13.4318 44.3421C13.4106 44.3822 13.4015 44.4253 13.4015 44.4654C13.4015 44.5113 13.4136 44.5572 13.4378 44.5974C13.4861 44.6777 13.5677 44.7293 13.6643 44.7379C15.4856 44.8814 18.8957 44.7724 20.279 44.7207L20.4814 44.6347C20.4874 44.6261 20.5569 44.4195 20.5569 44.4195C20.4935 43.688 19.53 42.3111 17.905 42.3111C17.2526 42.3111 16.6636 42.3742 16.138 42.4918C16.0354 42.423 15.8934 42.3312 15.836 42.291C15.5007 41.8349 14.8151 40.6014 14.0902 39.2904C14.0902 39.2904 13.6492 38.5016 13.5103 38.252C13.5375 38.1745 13.5677 38.0971 13.5677 38.0971C13.5677 38.1057 13.5737 38.0627 13.5828 38.0225C14.7547 37.0558 15.3588 35.9313 15.3588 34.6777C15.3588 34.2704 15.2772 33.8401 15.1473 33.404C15.5883 33.2577 15.9387 32.7959 15.981 32.7328C15.981 32.7356 16.0172 32.6955 16.0203 32.6926C16.2619 32.6754 16.4008 32.5463 16.5639 32.3599C16.7119 32.1935 16.7995 31.9439 16.8056 31.6886C17.5546 31.1636 18.346 30.1223 18.497 29.8728C18.642 29.6347 18.7175 29.4023 18.7175 29.1786L18.6812 28.9233C18.6027 28.6507 18.4034 28.4299 18.0862 28.2635C17.5123 27.9623 16.7633 27.7156 15.6971 27.466C15.694 27.4488 15.694 27.4459 15.694 27.4287C16.7663 27.4603 17.7298 27.4545 18.497 27.4C18.6269 27.6381 18.8383 27.8045 19.095 27.8676C19.24 27.902 19.388 27.8733 19.536 27.8246C19.9045 28.1114 20.2519 28.1975 20.4814 28.2176C20.5297 28.2663 20.5901 28.3208 20.5901 28.3208C20.9677 28.6909 21.4842 29.1958 21.9705 29.1958C22.4205 29.1958 22.6048 28.995 22.6772 28.8745L22.7467 28.6192C22.7467 28.5704 22.7165 28.5245 22.7044 28.4757C22.7769 28.5044 22.8675 28.536 22.8675 28.536C23.6317 28.754 23.8613 28.3094 23.9005 28.2176C23.9005 28.2147 23.9488 27.9766 23.9488 27.9766C23.9488 27.6697 23.7404 27.3656 23.4203 27.2078C23.2904 27.1447 23.1786 27.0759 23.0759 27.0099C23.4082 26.9669 23.7465 26.9238 23.7465 26.9238C24.3657 26.8521 24.4835 26.5624 24.4986 26.396V26.3874V26.3587C24.4986 26.0661 24.2086 25.7965 23.7586 25.6788C23.2451 25.5412 22.1849 25.4063 21.5748 25.3289C21.6412 25.042 21.6896 24.7953 21.6896 24.5945C21.6896 24.4453 21.6654 24.3134 21.6201 24.1872C21.454 23.7569 20.9677 23.5475 20.6777 23.536C20.5901 23.5331 20.2851 23.5389 20.0797 23.7597C20.0102 23.8372 19.9287 23.9663 19.9287 24.1614L19.9619 24.5142C19.9619 24.7236 19.9075 24.9101 19.8592 25.0478C19.8139 25.1768 19.7716 25.2285 19.687 25.2801C19.4545 25.1998 19.2038 25.1883 18.9803 25.2658C18.796 25.3289 18.6541 25.4494 18.5363 25.6014C17.9956 25.6301 17.4731 25.6243 16.9747 25.5813C16.9234 25.5297 16.872 25.478 16.872 25.478C16.7633 25.4178 16.6455 25.4006 16.5428 25.435L16.4854 25.4551C16.4854 25.4551 16.434 25.5125 16.428 25.5153C15.3527 25.3604 14.4768 25.0564 13.6885 24.7465C13.5616 24.6548 13.4257 24.5773 13.2838 24.5056C16.3887 24.4626 18.7477 22.7557 19.8109 21.9841C20.9556 21.2956 21.5416 20.567 21.5416 19.8297L21.5084 19.5056L21.4781 19.4826C20.6777 18.361 19.7837 17.5348 18.3732 16.5882C18.5876 16.4276 18.7749 16.221 18.8715 15.9915L18.941 15.6731L18.8776 15.4092C18.787 15.2313 18.6027 15.1023 18.3309 15.0277C17.9382 14.9187 17.7449 14.8355 17.1257 14.4597C16.6545 14.1757 16.2256 13.82 15.9085 13.5618C15.9055 13.5589 15.7937 13.4671 15.7242 13.4126C15.6367 13.1516 15.5007 12.8762 15.1866 12.6094C15.1655 12.5434 15.1171 12.3885 15.1171 12.3885C15.1111 12.3685 15.1051 12.3455 15.099 12.3226C15.7242 9.56582 16.4612 6.51648 18.4456 5.82228C19.8985 5.31166 21.9493 6.03742 24.713 8.03398C24.7885 8.08849 24.8973 8.07414 24.9546 8.00243C25.0151 7.92211 25 7.8217 24.9244 7.76433ZM10.5261 24.2503C10.4446 24.2474 10.366 24.2704 10.3056 24.3306C10.1184 24.5171 9.93713 24.6404 9.79215 24.6806C9.66529 24.7207 9.58676 24.824 9.58676 24.9445C9.58676 24.9473 9.58978 25.0707 9.5928 25.1711C9.21827 25.435 8.86186 25.6043 8.52055 25.7563C8.52055 25.7563 8.50243 25.7649 8.47827 25.7764C8.46316 25.762 8.44504 25.7477 8.42692 25.7362C8.36349 25.4408 8.27892 25.1309 8.18831 24.8297C8.18831 24.8297 8.17925 24.8039 8.17622 24.7838C8.19133 24.7638 8.21247 24.7379 8.21247 24.7379C8.32725 24.5773 8.38463 24.408 8.38463 24.2359L8.35745 24.0323C8.2608 23.6766 7.94969 23.4413 7.7292 23.3094C7.74431 23.1459 7.78055 22.991 7.82888 22.8274C7.88929 22.618 7.95271 22.4086 7.95271 22.1677C7.95271 22.0787 7.92855 21.9669 7.89231 21.8492C8.77125 23.1975 9.80725 23.7425 10.5805 24.0208C10.5805 24.0925 10.5593 24.17 10.5261 24.2503ZM15.5551 29.5199L15.6457 29.3392L15.6336 29.3019C15.6336 29.3019 15.6276 29.2847 15.6246 29.279C15.8874 29.3134 16.132 29.3765 16.3344 29.4626C16.1864 29.7179 15.8118 30.3719 15.7545 30.4666C15.54 30.4408 15.3165 30.4608 15.1111 30.5325C15.0688 30.5153 15.0175 30.4953 14.951 30.4723C15.2017 30.2113 15.3678 29.8957 15.5551 29.5199Z" fill="#221E1F"/>
<path d="M2.35959 27.0052C2.28408 26.9478 2.19044 26.9392 2.12097 26.9335C2.0364 26.9278 1.98808 26.922 1.95787 26.879C1.87028 26.7671 2.04546 26.4544 2.48342 26.1475C2.78547 25.9323 3.09959 25.8119 3.27779 25.8377C3.3231 25.8434 3.35331 25.8606 3.37445 25.8836C3.40767 25.9266 3.39861 25.9725 3.38049 26.05C3.36539 26.1159 3.34726 26.202 3.38049 26.2881C3.1902 26.311 2.9969 26.3942 2.79151 26.5405C2.58008 26.6897 2.43812 26.8417 2.35959 27.0052ZM5.76662 29.2944C5.73642 29.4952 5.60352 29.6673 5.35584 29.8423C5.11119 30.0144 4.88768 30.1033 4.63094 30.0459C4.55543 29.9111 4.64302 29.6042 4.98433 29.3632C5.12931 29.2628 5.28335 29.1968 5.42833 29.1739C5.47666 29.1681 5.50988 29.1251 5.50082 29.0792C5.49176 29.0333 5.44948 29.0046 5.40115 29.0104C5.22899 29.0362 5.04776 29.1136 4.88164 29.2313C4.55241 29.4636 4.41347 29.7533 4.43159 29.9714C4.1507 29.8337 3.82449 29.5267 3.39559 28.9788C3.22947 28.7665 3.08751 28.5571 2.96065 28.3506C3.10563 28.1842 3.17208 27.9432 3.12375 27.7252C3.11469 27.6879 3.09959 27.6535 3.08449 27.6191C3.4258 28.2358 3.94531 28.9817 4.36515 29.3661C4.39837 29.3976 4.45274 29.3976 4.48596 29.3632C4.51919 29.3288 4.51919 29.28 4.48294 29.2485C3.97853 28.7866 3.28686 27.7281 3.00596 27.0884C2.98783 27.0454 2.93649 27.0253 2.89118 27.0454C2.84588 27.0626 2.82775 27.1113 2.84588 27.1515C2.89722 27.2691 2.96367 27.4011 3.03616 27.5416C2.96971 27.4384 2.87306 27.358 2.74922 27.315C2.66465 27.2863 2.58008 27.2806 2.49853 27.2863C2.49551 27.2777 2.49249 27.2691 2.49249 27.2576C2.48645 27.229 2.47738 27.2031 2.47134 27.1802C2.51967 26.9995 2.65257 26.8331 2.88212 26.6725C3.07241 26.5376 3.24759 26.4688 3.41371 26.4516C3.37143 26.463 3.33518 26.4716 3.30498 26.4803C3.16906 26.5118 3.06939 26.5979 3.03012 26.7183C2.98783 26.8589 3.03616 27.0167 3.16604 27.1458L3.2053 27.1831C3.34424 27.3236 3.62514 27.6105 4.02988 27.6162C4.43159 28.0379 4.81519 28.517 5.00849 28.8727C5.02964 28.9128 5.08098 28.93 5.12629 28.91C5.16858 28.8899 5.1867 28.8411 5.16254 28.801C4.97527 28.451 4.61886 28.0035 4.24433 27.5961C4.38629 27.5646 4.54033 27.5015 4.70343 27.3867C4.82123 27.5158 4.93903 27.6564 5.0538 27.8027C5.6005 28.4998 5.81797 28.9587 5.76662 29.2944ZM5.36792 29.498C5.33168 29.4521 5.27127 29.4378 5.2018 29.4521C5.16254 29.4607 5.13837 29.4923 5.13837 29.5296C5.13837 29.5353 5.13837 29.5411 5.14139 29.5468C5.14743 29.5726 5.17764 29.5812 5.2018 29.5927C5.18972 29.6042 5.17764 29.6185 5.17764 29.6185C5.14441 29.6415 5.12327 29.6357 5.10817 29.63C5.06588 29.6128 5.01454 29.63 4.99339 29.6702C4.97527 29.7132 4.99339 29.7591 5.03568 29.7792C5.11723 29.8136 5.2018 29.805 5.28033 29.7505C5.38907 29.6759 5.42229 29.5698 5.36792 29.498Z" fill="#00B8F1"/>
<path d="M2.37461 26.0184C2.41992 25.9869 2.46824 25.9553 2.51355 25.9266L1.58628 24.7361C1.50473 24.6329 1.46546 24.5153 1.46546 24.3976C1.46546 24.3144 1.50473 24.2313 1.544 24.1509C1.46849 24.0964 0.861381 23.6461 0.77681 23.5801C0.701299 23.6317 0.459666 23.8038 0.384155 23.8555C0.423421 23.9501 0.689218 24.6099 0.728483 24.7103C0.955014 24.6759 1.17248 24.7533 1.31142 24.9283L2.23869 26.1217C2.28702 26.0815 2.3293 26.05 2.37461 26.0184Z" fill="white"/>
<path d="M3.72777 29.6301C3.63716 29.7391 3.57977 29.8625 3.5103 30.0461C3.44989 30.201 3.46801 30.3588 3.55561 30.4678C3.6281 30.5596 3.74287 30.6026 3.87275 30.594C4.05699 30.5796 4.2503 30.3788 4.42851 30.1551C4.20802 30.0633 3.98148 29.8912 3.72777 29.6301Z" fill="white"/>
<path d="M2.76123 28.3334C2.76425 28.319 2.77331 28.3047 2.78539 28.2932C2.92735 28.167 2.99984 27.949 2.95756 27.7625C2.93943 27.6793 2.88205 27.533 2.70082 27.4728C2.6676 27.4613 2.63437 27.4556 2.60115 27.4527C2.59511 27.4527 2.58605 27.4499 2.58001 27.4499C2.54678 27.447 2.51658 27.4499 2.48637 27.4556C2.48637 27.4556 2.48637 27.4556 2.48335 27.4556C2.45013 27.4613 2.41992 27.4699 2.39274 27.4814C2.38972 27.4814 2.3867 27.4843 2.38368 27.4843C2.35347 27.4986 2.32327 27.513 2.29609 27.533C2.29609 27.533 2.29609 27.533 2.29307 27.533C2.2689 27.5503 2.24474 27.5703 2.2236 27.5904C2.22058 27.5904 2.22058 27.5933 2.21755 27.5962C2.17225 27.6392 2.12996 27.6879 2.0907 27.7425C2.08768 27.7482 2.08466 27.7511 2.08164 27.7539C2.06351 27.7797 2.04841 27.8056 2.03029 27.8314C2.02727 27.8342 2.02727 27.8371 2.02425 27.84C2.00915 27.8658 1.99102 27.8974 1.97592 27.9232C1.96988 27.9318 1.96686 27.9404 1.96384 27.949C1.95176 27.9691 1.9427 27.992 1.93364 28.0121C1.93061 28.0207 1.92457 28.0293 1.92155 28.0379C1.92155 28.0408 1.92155 28.0408 1.91853 28.0408C1.90645 28.0666 1.89437 28.0924 1.88531 28.1182C1.88531 28.1211 1.88229 28.124 1.88229 28.1268C1.84302 28.2244 1.85208 28.3047 1.90645 28.3764C2.06351 28.5801 2.56188 28.6633 2.84278 28.6432C2.87903 28.6403 2.91527 28.6604 2.93037 28.6948C2.94246 28.7293 2.93339 28.7665 2.90319 28.7895C2.69176 28.953 2.46221 29.1682 2.37764 29.5296C2.33233 29.7189 2.38368 29.8681 2.5196 29.9455C2.6676 30.0287 2.86997 30.0087 3.00286 29.8996C3.20523 29.7304 3.38948 29.5956 3.57372 29.4694C3.47103 29.3546 3.36229 29.2227 3.25054 29.0792C3.07837 28.8583 2.93037 28.6432 2.80352 28.4309C2.79143 28.4281 2.78237 28.4194 2.77331 28.4137C2.75519 28.3936 2.74915 28.3707 2.75217 28.3477L2.76123 28.3334Z" fill="white"/>
<path d="M6.81164 28.1039C6.79654 27.9318 6.72707 27.8085 6.60323 27.7396C6.41596 27.6335 6.1411 27.665 5.9327 27.7454C6.00821 28.0752 5.98102 28.2961 5.98102 28.3047C5.97498 28.3506 5.9327 28.3822 5.88437 28.3765C5.83906 28.3707 5.80282 28.3277 5.80886 28.2847C5.80886 28.2818 5.83906 28.058 5.75147 27.7253C5.74543 27.7081 5.75147 27.6909 5.75449 27.6765C5.57025 27.1573 5.0749 26.5205 4.8393 26.3684C4.60975 26.2192 4.60975 26.2192 4.44967 26.2852C4.42249 26.2967 4.38926 26.3082 4.35 26.3254C4.35 26.3254 4.35 26.3254 4.34698 26.3254C4.31375 26.3369 4.27449 26.3512 4.23522 26.3655C4.22012 26.3713 4.20502 26.377 4.18991 26.3828C4.16273 26.3942 4.13253 26.4028 4.10232 26.4143C4.0842 26.42 4.06608 26.4258 4.05097 26.4315C4.01171 26.4459 3.96942 26.4602 3.92714 26.4746C3.9211 26.4774 3.91506 26.4803 3.90901 26.4803C3.90901 26.4803 3.90901 26.4803 3.90599 26.4803C3.87881 26.4889 3.85163 26.4975 3.82444 26.5061C3.79726 26.5147 3.77008 26.5233 3.74591 26.5319C3.70967 26.5434 3.67644 26.5549 3.6402 26.5635C3.6251 26.5692 3.60697 26.575 3.59187 26.5778C3.54656 26.5922 3.50428 26.6036 3.46501 26.6151C3.46199 26.6151 3.45897 26.618 3.45595 26.618C3.41367 26.6295 3.37742 26.6381 3.34722 26.6467C3.27171 26.6639 3.22036 26.7098 3.19922 26.7729C3.17505 26.8561 3.20828 26.9536 3.29285 27.0397L3.33211 27.0798C3.56771 27.3208 3.99963 27.7597 4.72453 27.1688C4.73963 27.1573 4.75171 27.1487 4.76681 27.1343C4.80306 27.1028 4.85743 27.1057 4.88763 27.1401C4.92086 27.1745 4.91784 27.2261 4.88159 27.2577C4.86649 27.272 4.85139 27.2806 4.83628 27.2921C4.9571 27.4241 5.07792 27.5618 5.19269 27.7109C5.76959 28.451 5.99008 28.933 5.92968 29.3174C5.91457 29.4063 5.88739 29.4924 5.84208 29.5727C5.92061 29.5669 6.02633 29.5411 6.17131 29.4723C6.77841 29.1969 6.86601 28.7609 6.81164 28.1039Z" fill="white"/>
<path d="M6.5882 24.432C6.57611 24.4349 6.32542 24.5095 6.13211 24.5181C6.09285 24.63 6.02942 24.9168 6.29824 25.1119C6.44926 25.2209 6.6335 25.2582 6.84493 25.2266C7.21644 25.1693 7.65138 24.8853 7.9051 24.5382C8.00477 24.4005 8.03498 24.2599 7.99873 24.1194C7.93832 23.9042 7.72689 23.7178 7.51244 23.5915C7.51244 23.7522 7.53057 23.8612 7.65138 23.9415C7.69065 23.9673 7.69971 24.019 7.67253 24.0563C7.64534 24.0935 7.59098 24.1021 7.55171 24.0763C7.33424 23.93 7.34028 23.712 7.34028 23.5198V23.451C7.34028 23.1727 7.40673 22.9461 7.47318 22.7281C7.53057 22.5388 7.58191 22.358 7.58191 22.163C7.58191 21.7441 7.06844 21.0098 6.80567 20.9667C6.72109 20.9524 6.64256 20.9754 6.57309 21.0385C6.45832 21.1417 6.40697 21.3081 6.41603 21.3913L6.48248 21.5491C6.53685 21.638 6.6033 21.7528 6.62746 21.9765C6.62746 21.9794 6.62444 21.9822 6.62444 21.9851C6.67881 22.3007 6.53685 22.4412 6.38281 22.5875C6.23481 22.7281 6.08379 22.8744 6.03848 23.2244C6.03244 23.2702 5.99015 23.3018 5.94183 23.2961C5.8935 23.2903 5.86027 23.2502 5.86632 23.2043C5.91766 22.7969 6.10493 22.6162 6.25897 22.4699C6.39489 22.3408 6.48852 22.249 6.45832 22.031C5.65791 21.6179 5.70925 21.1934 5.79685 20.9352C5.62468 20.9036 5.49178 20.8291 5.48272 20.8262C5.44346 20.8032 5.42835 20.7545 5.45252 20.7143C5.47668 20.6742 5.52803 20.6627 5.57031 20.6828C5.57333 20.6828 5.73946 20.7746 5.91766 20.7832H5.92068C6.07472 20.7918 6.51269 20.7774 6.67881 20.5967C6.73922 20.5279 6.75734 20.4418 6.73318 20.3328C6.69995 20.1779 6.60934 20.0689 6.46738 20.0115C6.17742 19.8939 5.68509 19.9828 5.27129 20.2295C4.76688 20.5279 4.62492 21.0299 4.84541 21.7212C5.20786 21.8331 5.55823 22.1314 5.63072 22.3953C5.66093 22.5129 5.63374 22.6191 5.55521 22.6908C5.38607 22.8428 5.09611 22.8371 4.85145 22.7682C4.97529 22.8285 5.08101 22.9002 5.1535 22.9805C5.23505 23.0694 5.27431 23.1612 5.26525 23.253C5.25317 23.3477 5.20484 23.4338 5.12329 23.4969C4.96019 23.6231 4.69137 23.6432 4.56451 23.6288C4.51619 23.6231 4.48296 23.5829 4.489 23.537C4.49505 23.4911 4.53733 23.4596 4.58566 23.4653C4.67627 23.4768 4.89676 23.4596 5.01456 23.3678C5.06288 23.3305 5.08705 23.2903 5.09309 23.2358C5.09913 23.1842 5.05986 23.1268 5.02362 23.0895C4.85145 22.9031 4.43162 22.7482 4.09333 22.7424C4.03594 22.7424 3.95137 22.7969 3.89398 22.9059C3.85472 22.9805 3.78223 23.1756 3.95137 23.3879C4.17488 23.6719 4.77292 23.8411 5.12933 23.9415L5.31962 23.996C5.46762 24.0419 5.57333 24.1136 5.66697 24.1767C5.78778 24.2599 5.89652 24.3316 6.07472 24.346C6.24085 24.3546 6.53081 24.2685 6.53383 24.2657C6.57913 24.2513 6.62746 24.2771 6.64256 24.3202C6.65767 24.3718 6.6335 24.4177 6.5882 24.432Z" fill="white"/>
<path d="M3.76408 21.8934C3.67347 22.0799 3.99666 22.4815 4.12654 22.5848C4.2836 22.5905 4.4467 22.622 4.60376 22.6737C4.55543 22.6479 4.51013 22.6163 4.4769 22.5876C4.44066 22.5561 4.44066 22.5044 4.47388 22.47C4.50711 22.4385 4.56148 22.4356 4.59772 22.4671C4.77593 22.6278 5.25919 22.7425 5.44042 22.5761C5.4525 22.5647 5.49176 22.5302 5.4676 22.4385C5.41625 22.2405 5.11119 21.9565 4.7578 21.8647C3.96041 21.684 3.79731 21.8246 3.76408 21.8934Z" fill="white"/>
<path d="M15.9212 32.3409C15.9454 32.3351 15.9665 32.3294 15.9877 32.3294C16.0601 32.3236 16.1085 32.3036 16.2746 32.12C16.4075 31.9737 16.5736 31.5376 16.2504 31.1102C15.9877 30.766 15.5739 30.7545 15.2809 30.8406C15.4832 30.9525 15.6433 31.0787 15.7823 31.377C15.8034 31.4172 15.7823 31.4659 15.74 31.486C15.6977 31.5032 15.6433 31.486 15.6252 31.4459C15.4742 31.1303 15.3141 31.0442 15.0483 30.9066C15.0362 30.9008 15.0272 30.8951 15.0211 30.8865C14.9245 30.8377 14.4895 30.6398 13.9005 30.7172C13.0458 30.8291 12.5716 31.2422 12.1819 31.6753C12.0792 31.7901 12.04 31.8847 12.0762 31.9306C12.1306 32.0024 12.3692 32.0138 12.5897 31.922C12.8766 31.8016 13.1183 31.7557 13.23 31.7385C13.4173 31.6495 13.6347 31.6524 13.6438 31.6524C13.6952 31.6524 13.7344 31.6926 13.7344 31.7413C13.7344 31.7901 13.6921 31.8274 13.6408 31.8274C13.6408 31.8274 13.4807 31.8245 13.3387 31.8848H13.3357C13.3236 31.8905 13.0035 32.0253 12.8585 32.5015C12.8283 32.6048 12.8071 32.7396 12.8887 32.7998C12.9793 32.8658 13.1787 32.8343 13.3025 32.7625L13.4203 32.6765C13.4596 32.6478 13.5139 32.6564 13.5411 32.6908C13.5683 32.7253 13.5623 32.7769 13.526 32.8056L13.4716 32.8429C13.674 33.0408 14.2056 32.9605 14.4503 32.8744C14.4593 32.8658 14.4684 32.8601 14.4805 32.8572C14.5741 32.8257 14.6405 32.7625 14.6405 32.7625C14.6738 32.7281 14.7281 32.7281 14.7644 32.7568C14.8006 32.7884 14.8006 32.84 14.7674 32.8715C14.7644 32.8744 14.704 32.9347 14.6134 32.9806C14.6164 32.9863 14.6164 32.992 14.6224 33.0006C14.6375 33.0178 14.6859 33.0637 14.858 33.0781C15.1661 33.1039 15.5406 32.6851 15.6645 32.5158L15.743 32.3294L15.7581 32.2749C15.7702 32.2319 15.8155 32.206 15.8608 32.2175C15.9061 32.229 15.9363 32.2777 15.9242 32.3208L15.9212 32.3409Z" fill="white"/>
<path d="M23.6535 26.0183C23.1521 25.8835 22.0073 25.7401 21.4606 25.6712L21.2824 25.6483C21.2734 25.6712 21.2613 25.697 21.2553 25.7114C21.2885 25.8318 21.3489 26.0441 21.3489 26.3023C21.3489 26.5404 21.3006 26.8186 21.1344 27.094C21.1103 27.1342 21.0589 27.1485 21.0166 27.1256C20.9744 27.1026 20.9593 27.0539 20.9834 27.0137C21.2975 26.4859 21.1435 25.9437 21.0861 25.7401C21.0831 25.7228 21.077 25.6913 21.0861 25.6741L21.1465 25.5364C21.2975 24.9139 21.373 24.5783 21.2704 24.3086C21.1737 24.0533 20.8505 23.8984 20.6663 23.8927C20.5696 23.8898 20.4428 23.9156 20.3672 23.9959C20.3129 24.0562 20.2948 24.1365 20.3159 24.2398C20.3884 24.6127 20.2948 24.9454 20.2192 25.1606C20.1437 25.3786 20.0743 25.4876 19.8779 25.6024C19.9746 25.6827 20.0531 25.7773 20.0924 25.8491C20.1166 25.8892 20.0984 25.938 20.0592 25.9609C20.0169 25.9839 19.9655 25.9667 19.9414 25.9265C19.8961 25.8491 19.7873 25.7286 19.6726 25.6569C19.4974 25.5622 19.292 25.5421 19.1138 25.6052C19.0111 25.6397 18.9265 25.6999 18.854 25.7773C18.9114 25.7745 18.9658 25.7716 19.0232 25.7659C19.0534 25.763 19.0806 25.7745 19.0987 25.7974C19.3494 26.0929 19.5215 26.5892 19.2527 27.1026C19.2406 27.1256 19.2165 27.1428 19.1893 27.1485C19.0685 27.1629 18.9386 27.1772 18.8087 27.1887C18.8178 27.2059 18.8238 27.2203 18.8299 27.2346C18.9114 27.3838 19.0383 27.487 19.1923 27.5215C19.3192 27.553 19.4521 27.5301 19.5578 27.4612C19.5608 27.4584 19.5668 27.4612 19.5699 27.4583C19.7481 27.3178 19.8538 27.1744 19.893 27.008C19.9051 26.9649 19.9504 26.9363 19.9957 26.9477C20.0441 26.9592 20.0712 27.0022 20.0592 27.0453C20.0139 27.226 19.9081 27.3838 19.739 27.5329C20.0924 27.8255 20.4337 27.8743 20.6149 27.8743C20.6391 27.8743 20.6572 27.88 20.6723 27.8972L20.8596 28.0751C21.1344 28.3448 21.6449 28.8439 21.9711 28.8439C22.1614 28.8439 22.3003 28.7923 22.3517 28.7033C22.3849 28.646 22.3788 28.5742 22.3366 28.5054L22.0798 28.1468L21.965 27.9948C21.9439 27.9661 21.9439 27.9317 21.965 27.903C21.9832 27.8743 22.0224 27.8628 22.0557 27.8686C22.2641 27.9116 22.3909 27.969 22.5268 28.0321L22.998 28.2099C23.282 28.2902 23.4904 28.2472 23.5568 28.0923C23.6263 27.9288 23.5206 27.6649 23.2517 27.5358C22.6839 27.2575 22.3426 26.9018 22.3305 26.8875C22.3245 26.8818 22.3245 26.876 22.3215 26.8674L22.2308 26.7871C22.1976 26.7555 22.1946 26.7039 22.2278 26.6724C22.2611 26.6408 22.3154 26.6379 22.3517 26.6695L22.4332 26.7441L23.7018 26.5806C23.9555 26.5519 24.1186 26.4744 24.1277 26.3769C24.1277 26.2564 23.9585 26.0986 23.6535 26.0183Z" fill="white"/>
<path d="M10.7744 26.3569C10.7986 26.4057 10.8409 26.4401 10.8892 26.4631C11.1067 26.9507 11.1882 27.4556 11.1882 27.926C11.1882 28.4912 11.0734 28.9932 10.9375 29.3403C10.8952 29.3489 10.859 29.3546 10.8288 29.3575C10.8167 29.2657 10.7895 29.1739 10.7472 29.1022C10.7895 29.1108 10.8318 29.1251 10.8741 29.1452C10.9164 29.1682 10.9677 29.1538 10.9919 29.1137C11.016 29.0735 11.0009 29.0247 10.9587 29.0018C10.8801 28.9616 10.8016 28.9415 10.7261 28.9301L10.7472 28.9186L10.9013 28.8038C10.9405 28.7752 10.9466 28.7235 10.9164 28.6862C10.8862 28.6518 10.8348 28.6432 10.7986 28.6719L10.6385 28.7895L10.3848 28.9387C9.1011 29.4321 8.43962 29.5784 6.82672 29.1395C6.98982 28.8698 7.01097 28.56 6.99586 28.2617C7.38852 28.3334 8.04999 28.4567 8.21913 28.4854C8.2584 28.5686 8.35203 28.7608 8.48191 28.9157C8.51211 28.953 8.56648 28.9587 8.60273 28.9301C8.64199 28.9014 8.64803 28.8497 8.61783 28.8153C8.51513 28.6948 8.4366 28.5457 8.39432 28.4567L8.41546 28.4481C8.49701 28.4883 8.80812 28.6461 8.94705 28.778C8.98028 28.8096 9.03465 28.8096 9.07089 28.778C9.10412 28.7465 9.10412 28.6948 9.07089 28.6604C8.95914 28.5514 8.75677 28.4367 8.62085 28.3649L8.64199 28.3563L10.1371 27.7195C10.2398 27.6937 10.3818 27.6277 10.421 27.5904C10.4542 27.5589 10.4542 27.5072 10.421 27.4728C10.3878 27.4412 10.3334 27.4412 10.2972 27.4728C10.273 27.4986 10.1975 27.5273 10.1371 27.5474L10.0223 27.3724C9.99816 27.338 9.98004 27.3064 9.9589 27.2777C10.0012 27.2892 10.0465 27.3007 10.0948 27.3122L10.2851 27.3609C10.3304 27.3724 10.3787 27.3495 10.3938 27.3036C10.4059 27.2605 10.3818 27.2146 10.3334 27.2032L10.1401 27.1515C10.0767 27.1372 10.0163 27.12 9.96192 27.1028L10.0797 27.0655L10.2881 27.0052C10.3334 26.9909 10.3697 26.9421 10.3546 26.8991C10.3395 26.8561 10.3032 26.8302 10.2549 26.8417L10.0193 26.9106L9.68404 27.0138C9.52396 27.0368 8.5393 27.1859 8.5393 27.1859L8.28256 27.2175C7.8144 27.2777 7.48517 27.2376 7.30093 27.1028C7.20125 27.031 7.14387 26.9306 7.12574 26.7958L7.06533 26.2163C7.03211 25.8606 7.00493 25.548 6.94452 25.3672C7.24354 25.3013 7.5637 25.1234 7.8144 24.8824C7.82044 24.9025 7.82346 24.9169 7.82346 24.9169C7.9473 25.3443 8.08926 25.8291 8.13154 26.1905V26.1934C8.12852 26.1963 8.12248 26.2049 8.12248 26.2049L7.76909 26.6581C7.75701 26.6725 7.75097 26.6925 7.75097 26.7098C7.75097 26.7356 7.76305 26.7585 7.78419 26.7757C7.82346 26.8015 7.87481 26.7987 7.90199 26.7614C7.90199 26.7614 8.00166 26.6352 8.09832 26.5118C8.07415 26.6323 8.04395 26.7442 8.0077 26.8216C8.00166 26.8331 8.00166 26.8446 8.00166 26.8561C8.00166 26.8876 8.01979 26.9163 8.05301 26.9306C8.0953 26.9478 8.14664 26.9306 8.16779 26.8905C8.24028 26.7384 8.28558 26.4803 8.29766 26.2565C8.30069 26.2536 8.30371 26.2479 8.30673 26.2422L8.67522 26.0729C9.02861 25.9151 9.43334 25.7316 9.86828 25.416C9.8864 25.4189 9.90151 25.416 9.91963 25.4074C9.91963 25.4074 9.9891 25.3672 10.0465 25.3299C10.273 25.5279 10.4603 25.743 10.6113 25.9639C10.6113 25.9926 10.6173 26.0242 10.6324 26.0528L10.7744 26.3569ZM11.9886 26.5434C12.1094 26.5405 13.3901 26.529 13.5683 26.5262C13.5472 26.4344 13.5169 26.3311 13.4777 26.2192C13.4354 26.1848 13.3992 26.1418 13.381 26.0959L13.2572 25.7688C13.2451 25.7373 13.2421 25.7086 13.2451 25.6799C13.088 25.3701 12.8827 25.0546 12.6501 24.7993C12.5836 24.8595 12.484 24.9283 12.342 24.9857C12.3269 24.9915 12.3118 24.9943 12.2967 24.9915C11.8557 24.9398 11.4691 24.8365 10.7593 24.6185C10.9526 24.7935 11.2607 25.0976 11.5235 25.482L11.5809 25.4791L11.7107 25.5967L11.8527 25.8951C11.8527 25.8865 11.8587 25.9065 11.8527 25.8979L11.8587 26.0672L11.8497 26.0758C11.9131 26.2278 11.9614 26.3827 11.9886 26.5434ZM19.1047 26.9794C19.1742 26.836 19.2074 26.6925 19.2074 26.5548C19.2074 26.3053 19.1047 26.0844 18.9748 25.9209C18.2439 25.984 17.5824 25.9783 16.9814 25.9266C17.0176 26.0184 17.0478 26.1274 17.0659 26.2479C17.072 26.2909 17.0388 26.334 16.9934 26.3397C16.9481 26.3454 16.9028 26.3139 16.8968 26.2709C16.8726 26.1045 16.8303 25.9869 16.7881 25.9065C16.7367 25.9008 16.6823 25.8979 16.631 25.8893C16.628 25.9151 16.625 25.941 16.625 25.9696C16.625 26.0643 16.6431 26.1791 16.7035 26.2938C16.7095 26.3053 16.7126 26.3168 16.7126 26.3311C16.7126 26.3598 16.6944 26.3913 16.6642 26.4057C16.6219 26.4258 16.5706 26.4085 16.5494 26.3684C16.4588 26.1963 16.4407 26.0127 16.4588 25.8664C15.4802 25.7344 14.6647 25.482 13.9458 25.2152C14.0365 25.3127 14.1271 25.4246 14.2147 25.548C14.3174 25.5709 14.414 25.6455 14.4503 25.7402L14.5741 26.0672C14.5922 26.1131 14.5922 26.159 14.5771 26.202C14.707 26.4917 14.8187 26.8302 14.9154 27.2261C15.0302 27.7109 15.0423 28.1527 15.0513 28.5084C15.0574 28.7493 15.0634 28.9645 15.1057 29.0964C15.1178 29.0477 15.1299 28.9989 15.1389 28.9559C15.148 28.9186 15.1812 28.8899 15.2235 28.8899C15.743 28.8899 16.3018 29.0161 16.6672 29.2083C16.7277 29.0534 16.8424 28.7895 17.3408 28.7809C17.3891 28.7809 17.4284 28.8153 17.4284 28.8641C17.4284 28.9071 17.3921 28.9473 17.3438 28.9473C17.0357 28.953 16.927 29.0678 16.8666 29.1854C17.0418 29.085 17.2683 29.0362 17.6187 29.1452C17.664 29.1595 17.6881 29.2054 17.6761 29.2485C17.661 29.2915 17.6126 29.3145 17.5643 29.3001C17.1988 29.1854 17.0055 29.2657 16.8122 29.4292C16.8001 29.4378 16.7881 29.4435 16.776 29.4464C16.6491 29.6644 16.2323 30.3902 16.036 30.7287C16.1689 30.7889 16.2927 30.8807 16.3954 31.0184C16.489 31.1418 16.5464 31.2709 16.5797 31.3971C17.2381 30.9381 17.9962 29.9771 18.1744 29.6874C18.259 29.5525 18.3436 29.3661 18.3436 29.1739C18.3436 29.1194 18.3375 29.0649 18.3224 29.0104C18.2711 28.8354 18.1321 28.6862 17.9056 28.5686C17.3378 28.2703 16.5887 28.0264 15.4953 27.7769C15.4893 27.9375 15.4712 28.0666 15.4591 28.1498C15.45 28.1928 15.4077 28.2244 15.3594 28.2158C15.3141 28.21 15.2809 28.167 15.2899 28.1211C15.3322 27.8888 15.3987 27.2663 15.1299 26.5635C15.1147 26.5204 15.1389 26.4745 15.1812 26.4602C15.2265 26.443 15.2748 26.4659 15.293 26.5089C15.3383 26.6294 15.3715 26.7442 15.4017 26.8589C15.4138 26.7987 15.4259 26.7327 15.4349 26.6696C15.441 26.6237 15.4832 26.5921 15.5316 26.5979C15.5769 26.6036 15.6101 26.6466 15.6041 26.6897C15.595 26.7556 15.5678 26.9278 15.5316 27.0569C17.0055 27.1142 18.2681 27.0855 19.1047 26.9794Z" fill="#F7D00C"/>
<path d="M13.9971 27.47C13.9971 27.5704 14.0001 27.754 14.0032 27.8458C13.8823 27.8515 13.4293 27.8831 13.4293 27.8831C13.4293 27.8831 13.4444 29.4551 13.4444 29.587C13.3356 29.6014 12.946 29.653 12.8101 29.6731C12.8101 29.5038 12.8041 27.9261 12.8041 27.9261C12.8041 27.9261 12.2966 27.9576 12.1607 27.9662V27.5474C12.3087 27.5388 13.8431 27.4757 13.9971 27.47Z" fill="white"/>
<path d="M10.9344 26.2881L10.7925 25.9897C10.7804 25.9582 10.7925 25.9238 10.8227 25.9094L11.4751 25.634H11.5234L11.5597 25.6656L11.6986 25.9668C11.6926 25.9582 11.6986 25.9783 11.6986 25.9668V26.0127L11.6654 26.0443L11.013 26.3196C10.9828 26.334 10.9465 26.3196 10.9344 26.2881ZM11.0794 25.8291C11.0341 25.8406 11.0069 25.8865 11.019 25.9295C11.0432 26.0127 11.0824 26.1246 11.1912 26.1647C11.2697 26.1934 11.3603 26.1762 11.469 26.1131C11.5083 26.0901 11.5204 26.0385 11.4962 26.0012C11.469 25.9639 11.4177 25.9496 11.3754 25.9754C11.2999 26.0213 11.2667 26.0184 11.2546 26.0156C11.2425 26.0098 11.2153 25.9897 11.1851 25.8893C11.173 25.8434 11.1277 25.8176 11.0794 25.8291Z" fill="white"/>
<path d="M13.4354 25.6855L14.1572 25.7056C14.2056 25.7085 14.266 25.7515 14.2841 25.7974L14.4079 26.1244C14.4079 26.1244 14.411 26.1474 14.411 26.1503L14.3959 26.1531L13.674 26.1331C13.6287 26.1331 13.5652 26.0872 13.5501 26.0413L13.4263 25.7142C13.4263 25.7142 13.4233 25.6913 13.4233 25.6884C13.4233 25.6884 13.4354 25.6855 13.4354 25.6855ZM13.7616 25.7831C13.7163 25.7888 13.68 25.8318 13.6891 25.8749C13.7012 25.9609 13.7495 26.0298 13.825 26.0728C13.9065 26.1187 14.0183 26.1244 14.115 26.0872C14.1572 26.0699 14.1814 26.024 14.1633 25.981C14.1452 25.938 14.0938 25.9179 14.0515 25.9351C14.0032 25.9523 13.9488 25.9523 13.9126 25.9322C13.8824 25.9179 13.8673 25.8921 13.8612 25.8548C13.8522 25.806 13.8069 25.7773 13.7616 25.7831Z" fill="white"/>
<path d="M10.5025 25.132C10.5388 25.1636 10.5931 25.1607 10.6233 25.1263C10.6565 25.0919 10.6535 25.0402 10.6173 25.0115C10.6112 25.0058 10.4783 24.891 10.3152 24.7935C10.3817 24.7447 10.4481 24.6902 10.5146 24.63C10.6475 24.739 11.025 25.066 11.3452 25.5107L10.7532 25.7631C10.7351 25.7717 10.72 25.7832 10.7019 25.7975C10.5418 25.5766 10.3515 25.3644 10.1159 25.1722C10.0857 25.1464 10.0374 25.1492 10.0041 25.1693C10.0041 25.1693 9.97998 25.1836 9.96789 25.1923C9.96487 25.1005 9.96487 25.0373 9.96185 24.9943C10.0253 24.9714 10.0887 24.9398 10.1521 24.8997C10.3334 24.9857 10.4995 25.1291 10.5025 25.132ZM12.7135 24.6472C12.9641 24.9025 13.1816 25.2181 13.3538 25.5365C13.381 25.525 13.4081 25.5221 13.4414 25.5221L13.985 25.5394C13.5864 25.0144 13.1242 24.7734 12.7135 24.6472ZM15.607 42.5876C15.6221 42.5962 15.6402 42.599 15.6584 42.5962C15.7339 42.6421 15.8124 42.6908 15.8849 42.7453C14.9908 42.9978 14.3022 43.4424 13.8461 44.062C13.8673 43.7809 13.9216 43.4625 13.9881 43.2646C14.0032 43.2215 13.976 43.1756 13.9307 43.1613C13.8854 43.1469 13.837 43.1728 13.8219 43.2158C13.7917 43.3076 13.7615 43.4309 13.7374 43.56C13.4353 41.6983 12.1909 39.782 10.7592 39.0678L11.167 38.953L11.904 38.7293C11.9493 38.7178 11.9704 38.6719 11.9553 38.6289C11.9402 38.5858 11.8859 38.5629 11.8436 38.5772L11.1217 38.7952L10.5025 38.9731H10.4995L9.99206 39.1022L9.56014 39.2227L9.687 38.8469C9.69304 38.8469 9.69908 38.8469 9.70814 38.8469C9.72626 38.8411 10.1703 38.7264 10.4149 38.451C10.4451 38.4166 10.4421 38.3649 10.4059 38.3363C10.3696 38.3076 10.3152 38.3104 10.282 38.3449C10.1129 38.5371 9.81687 38.6403 9.70814 38.6748C9.69908 38.6662 9.687 38.6547 9.67189 38.6518C9.62659 38.6375 9.57826 38.6575 9.56014 38.7006L9.52993 38.7809L9.35173 39.3202C9.35173 39.3202 9.35173 39.3202 9.35173 39.3231C9.23393 39.6415 9.03761 40.307 9.03761 41.1676C9.03761 41.6524 9.10103 42.2003 9.2732 42.7855C9.41214 43.2502 9.48765 43.5744 9.52691 43.7981C9.10707 43.2215 8.35197 42.6994 7.43376 42.6994C7.36731 42.6994 7.30086 42.7023 7.23442 42.7023L7.69654 42.3093C7.73278 42.2777 7.73581 42.2261 7.70258 42.1917C7.66936 42.1573 7.61499 42.1544 7.58176 42.1859L7.35221 42.3839C7.36127 42.3208 7.36429 42.2491 7.36429 42.1601C7.36429 41.7442 7.27066 40.1722 7.21025 39.4005C7.21327 38.8411 7.28576 38.5113 7.38846 38.015L7.46397 37.6593C7.47303 37.6162 7.44282 37.5732 7.3945 37.5646C7.34617 37.556 7.30086 37.5847 7.2918 37.6306L7.21931 37.9834C7.18005 38.1641 7.14682 38.3277 7.11662 38.4912C6.88707 38.2158 6.82968 38.101 6.68168 37.7023C6.66658 37.6593 6.61523 37.6363 6.56992 37.6507C6.52462 37.665 6.50045 37.7109 6.51556 37.7568C6.69074 38.2244 6.75719 38.3363 7.08339 38.7121C7.05923 38.8928 7.04413 39.0878 7.03809 39.3145C6.62127 39.2829 6.29507 39.2169 6.18331 39.1911C6.15613 38.8842 6.08666 38.5141 6.00813 38.081C5.86919 37.3495 5.70306 36.4659 5.70306 35.6111C5.70306 34.8824 5.82388 34.1739 6.18331 33.5858C7.21025 31.9048 8.9923 31.4803 10.8801 31.0299C10.9314 31.159 11.0522 31.42 11.2123 31.5262C11.2516 31.552 11.3059 31.5434 11.3331 31.5061C11.3452 31.4917 11.3482 31.4745 11.3482 31.4602C11.3482 31.4344 11.3361 31.4086 11.312 31.3942C11.2486 31.3512 11.1881 31.2623 11.1368 31.1705C11.2606 31.2422 11.4056 31.3168 11.5385 31.3368C11.5838 31.3454 11.6291 31.3139 11.6382 31.2709C11.6472 31.225 11.614 31.1848 11.5657 31.1762C11.3694 31.1446 11.1036 30.9582 11.022 30.8979C11.0099 30.4705 10.7894 30.0402 10.575 29.6243C10.575 29.6243 10.5448 29.564 10.5146 29.5038C10.6686 29.5411 10.7683 29.564 11.0341 29.5038C11.0613 29.498 11.0854 29.478 11.0945 29.4522C11.3512 28.8182 11.5566 27.6076 11.0915 26.4803C11.0945 26.4803 11.0945 26.4803 11.0975 26.4803L11.7348 26.2106C11.7862 26.3512 11.8285 26.5003 11.8496 26.6495C11.8557 26.6897 11.8919 26.7212 11.9372 26.7212L13.6921 26.704C13.7162 26.704 13.7404 26.6925 13.7555 26.6753C13.7676 26.661 13.7766 26.6409 13.7766 26.6208V26.6065C13.7615 26.5176 13.7344 26.4172 13.6981 26.3081L14.4019 26.3282C14.417 26.3282 14.4321 26.3282 14.4442 26.3254C14.5619 26.5979 14.6677 26.9106 14.7553 27.2777C14.867 27.7453 14.8761 28.1785 14.8851 28.5285C14.8942 28.9473 14.9002 29.2227 15.0694 29.346C15.1117 29.3776 15.166 29.3862 15.2234 29.3919C14.9365 29.9599 14.7553 30.3156 14.272 30.5508C14.1542 30.548 14.0273 30.548 13.8944 30.568C12.9793 30.6885 12.4779 31.1246 12.0701 31.5807C11.8587 31.813 11.8919 31.9593 11.9553 32.0396C12.0822 32.2032 12.4205 32.1888 12.6772 32.0855C12.795 32.0368 12.9007 32.0024 12.9974 31.9765C12.8917 32.0884 12.7829 32.2404 12.7135 32.4728C12.6893 32.5503 12.6802 32.6191 12.6802 32.6765C12.6802 32.8199 12.7437 32.9002 12.8071 32.9461C12.9581 33.0551 13.1907 33.0178 13.3477 32.949C13.5984 33.2416 14.1844 33.1555 14.4834 33.0609C14.4895 33.0752 14.4864 33.0896 14.4985 33.1039C14.5378 33.167 14.6163 33.21 14.7251 33.2359C14.9093 33.7522 14.9939 34.2313 14.9939 34.673C14.9939 36.0701 14.1814 37.1056 13.2722 37.8285C13.2722 37.8285 13.2722 37.8285 13.2692 37.8314C13.1575 37.9289 12.943 38.0523 12.6893 38.1641C12.647 38.1842 12.6259 38.233 12.647 38.2732C12.6681 38.3133 12.7195 38.3305 12.7618 38.3133C12.8524 38.2732 13.0427 38.1842 13.2058 38.081C13.1997 38.1269 13.1937 38.1527 13.1363 38.2301L13.085 38.3018C12.9883 38.4338 12.9672 38.4625 12.7406 38.6575C12.7044 38.6891 12.7014 38.7407 12.7346 38.7752C12.7648 38.8096 12.8222 38.8125 12.8554 38.7809C13.0699 38.6002 13.1182 38.5485 13.1997 38.4338L13.7676 39.4522C14.426 40.6398 15.0513 41.7671 15.4409 42.3409C15.2325 42.2691 15.0573 42.2405 15.0482 42.2376C15.0029 42.2318 14.9576 42.2605 14.9486 42.3064C14.9395 42.3523 14.9727 42.3925 15.018 42.4011C15.006 42.3925 15.3382 42.447 15.607 42.5876ZM11.9916 28.1412C11.9916 28.1412 12.499 28.1096 12.6349 28.101C12.6349 28.2588 12.641 29.8624 12.641 29.8624L13.6196 29.7304C13.6196 29.7304 13.6075 28.1785 13.6045 28.0379C13.7253 28.0293 14.1784 28.0006 14.1784 28.0006L14.1693 27.3007L14.0817 27.3036L11.9916 27.3896V28.1412Z" fill="#0089A2"/>
<path d="M17.9055 42.6593C15.8909 42.6593 14.5287 43.2445 13.8461 44.3833C15.6281 44.5067 18.7693 44.412 20.1648 44.3604C20.05 43.735 19.2224 42.6593 17.9055 42.6593Z" fill="#FCD0AF"/>
<path d="M7.42773 42.8573C5.41311 42.8573 4.0509 43.4425 3.36829 44.5842C5.14731 44.7076 8.29157 44.6129 9.687 44.5613C9.57222 43.9359 8.74463 42.8573 7.42773 42.8573Z" fill="#FCD0AF"/>
<path d="M18.0385 21.9621C18.5882 21.9334 19.0534 21.8416 19.6454 21.6523C19.6484 21.6523 19.6514 21.6523 19.6544 21.6523C20.6391 21.0441 21.1646 20.4016 21.1646 19.8192C21.1646 19.759 21.1586 19.6988 21.1465 19.6385C20.3431 18.5255 19.4913 17.7424 18.0325 16.7814L18.0294 16.7871L17.9328 16.7154C17.6942 16.5375 17.38 16.3425 17.0327 16.1531L16.7699 16.0183C16.341 15.8032 15.9333 15.6368 15.5769 15.5307C15.4711 15.7544 15.2386 15.8663 14.8338 16.0585L14.4774 16.2306C13.6226 16.6551 12.8857 16.7039 12.4054 16.7039C11.9493 16.7039 11.7198 16.5404 11.6564 16.1704L11.605 15.9237C11.5235 15.5651 11.4087 15.0745 11.5144 14.4865C11.6715 13.6058 12.1094 12.9288 12.7467 12.5846C13.2723 12.2977 13.9035 12.2576 14.4865 12.4641C14.6043 12.5071 14.71 12.5559 14.8036 12.6104L14.7613 12.4813C14.6435 12.0482 14.5197 11.5978 13.3417 11.5978C12.7951 11.5978 12.2151 11.876 11.7047 12.3838C10.9254 13.1612 10.4572 14.3029 10.4572 15.3987C10.4572 15.4647 10.4603 15.5278 10.4633 15.5938V15.5966C10.4633 15.6196 10.4512 15.6425 10.4331 15.6597C8.60573 17.1715 7.66034 18.6689 7.66034 20.0028C7.66034 20.4905 7.7872 20.9552 8.04091 21.3912C8.95308 22.9575 10.1069 23.4825 10.8952 23.7435C11.1368 23.821 11.3573 23.8353 11.3573 23.8353C11.4057 23.8382 11.4419 23.8783 11.4389 23.9242C11.4359 23.9701 11.3936 24.0045 11.3453 24.0017C11.3362 24.0017 11.1701 23.9902 10.9586 23.9357C10.9586 23.9472 10.9617 23.9615 10.9617 23.973C10.9617 24.1422 10.9133 24.3029 10.8288 24.4664C11.5023 24.6729 11.8768 24.7733 12.2906 24.825C12.3782 24.7877 12.4477 24.7418 12.4991 24.7016C12.3692 24.5611 12.2695 24.4176 12.2061 24.2627C12.1517 24.2512 12.0641 24.2312 11.9131 24.1881C11.8678 24.1767 11.8436 24.1308 11.8557 24.0877C11.8678 24.0447 11.9161 24.0189 11.9614 24.0304L12.2604 24.1078C12.2635 24.1078 12.2665 24.1049 12.2725 24.1078C15.4258 24.4549 17.9388 22.8628 19.2346 21.942C18.8268 22.0481 18.4553 22.1055 18.0415 22.1256C17.9932 22.1285 17.9539 22.094 17.9509 22.0481C17.9539 22.0051 17.9932 21.965 18.0385 21.9621ZM11.4842 22.4985C10.3304 22.4985 9.81088 21.6092 9.81088 20.9782C9.81088 20.9323 9.85014 20.895 9.89847 20.895C9.9468 20.895 9.98606 20.9323 9.98606 20.9782C9.98606 21.5404 10.4512 22.335 11.4842 22.335C11.5325 22.335 11.5718 22.3723 11.5718 22.4182C11.5688 22.4612 11.5325 22.4985 11.4842 22.4985ZM16.3924 23.0263C15.1238 23.3304 13.8884 23.0809 12.8222 22.3035C12.638 22.1686 12.4658 22.0223 12.3027 21.8674C11.7681 21.9076 11.1791 21.8961 10.8288 21.549C10.5267 21.2507 10.4301 20.7372 10.5328 19.9799C10.6536 19.0877 10.6264 18.8726 10.6264 18.864C10.6264 18.8611 10.6264 18.8554 10.6264 18.8525C10.6022 18.7206 10.5901 18.5972 10.5811 18.4767C10.4421 18.5312 10.3062 18.5972 10.1733 18.6775C10.1341 18.7005 10.0797 18.6919 10.0525 18.6517C10.0283 18.6144 10.0374 18.5628 10.0797 18.5398C10.2458 18.4394 10.421 18.3562 10.5962 18.2931C10.6113 18.2759 10.6324 18.2644 10.6596 18.2644C10.6626 18.2644 10.6657 18.2673 10.6717 18.2673C10.9828 18.1669 11.303 18.1267 11.5929 18.1554C11.6413 18.1612 11.6745 18.2013 11.6715 18.2472C11.6654 18.2931 11.6231 18.3247 11.5748 18.3189C11.315 18.2903 11.0311 18.3276 10.7532 18.4136C10.7593 18.5714 10.7804 18.7435 10.8167 18.9214C10.8288 18.9816 10.8439 19.0447 10.859 19.1078C10.8892 19.2312 10.9254 19.3574 10.9707 19.4836C10.9737 19.4951 10.9768 19.5037 10.9798 19.5152C11.0039 19.5869 11.0341 19.6615 11.0644 19.7332C11.0764 19.7619 11.0885 19.7905 11.1006 19.8221C11.1459 19.9368 11.2003 20.0487 11.2577 20.1635C11.2818 20.2094 11.303 20.2553 11.3271 20.3012C11.3543 20.3528 11.3875 20.4044 11.4147 20.4589C11.454 20.522 11.4902 20.588 11.5295 20.6511C11.5537 20.6884 11.5778 20.7286 11.605 20.7687C11.6715 20.872 11.7439 20.9724 11.8164 21.0699C11.8315 21.09 11.8497 21.1101 11.8648 21.1302C11.9282 21.2105 11.9916 21.2908 12.0611 21.3683C12.0883 21.3998 12.1155 21.4285 12.1426 21.4601C12.2061 21.5318 12.2725 21.6006 12.342 21.6666C12.5232 21.8473 12.7165 22.0166 12.9249 22.1686C13.9458 22.9145 15.1329 23.1554 16.3471 22.8628C16.3924 22.8514 16.4407 22.8772 16.4528 22.9231C16.4679 22.9718 16.4377 23.0177 16.3924 23.0263ZM18.2288 15.3585C18.3919 15.4044 18.4976 15.4704 18.5429 15.5565C18.558 15.588 18.5671 15.6253 18.5671 15.6655C18.5671 15.72 18.552 15.7802 18.5248 15.8519C18.4553 16.0183 18.3285 16.179 18.1774 16.2966C18.2167 16.047 18.1412 15.8175 17.6942 15.6311C17.5462 15.5679 17.3408 15.4532 17.1022 15.2954L16.8152 15.0975L16.1658 14.5869C15.897 14.3545 15.7007 14.1623 15.6373 14.0562L15.6222 14.0619C15.6131 13.9558 15.598 13.8525 15.5799 13.755L15.6675 13.8238C15.9907 14.0877 16.4347 14.4521 16.927 14.7504C17.5794 15.1463 17.812 15.2438 18.2288 15.3585Z" fill="#FCD0AF"/>
<path d="M18.0234 17.5387C18.7272 18.0464 19.3554 18.6316 19.9081 19.2943C20.0471 19.5324 19.8538 19.6615 19.739 19.6529C19.7299 19.6529 19.7269 19.65 19.7209 19.6471C19.1923 18.9013 18.5731 18.2214 17.8633 17.5989C17.9177 17.5817 17.969 17.5588 18.0234 17.5387ZM17.2019 16.9965C17.1716 16.9965 17.1414 16.9937 17.1143 16.9937C17.1656 17.0309 17.4676 17.269 17.5613 17.3436C17.5975 17.3264 17.6338 17.3121 17.673 17.2949C17.5401 17.2145 17.223 17.0137 17.2019 16.9965Z" fill="white"/>
<path d="M10.717 19.9111C10.7713 20.0517 10.9858 20.6053 11.1187 20.8119C11.2576 21.027 11.6412 21.6093 12.1185 21.7098C12.1275 21.7098 12.1366 21.7098 12.1456 21.7098C11.4811 21.0213 11.016 20.1836 10.7713 19.4235C10.7593 19.5583 10.7411 19.7161 10.717 19.9111Z" fill="white"/>
<path d="M14.423 12.619C13.8914 12.4268 13.3085 12.4641 12.8283 12.728C12.2393 13.0493 11.8315 13.6832 11.6835 14.5151C11.6412 14.7532 11.6382 14.9741 11.6533 15.1807C11.7983 14.7704 12.1185 14.4635 12.5806 14.4893C13.0306 14.5123 13.4746 14.845 13.4052 15.5565C13.2511 15.6655 13.0699 15.8032 13.0699 15.8032C13.1937 15.8204 13.2723 15.72 13.378 15.8204C13.3689 16.0269 13.3901 16.2621 13.2934 16.4629C13.6166 16.3998 13.9941 16.288 14.3989 16.0871L14.7583 15.915C15.3382 15.6368 15.4772 15.5708 15.4772 15.1204V15.0315C15.4772 13.8496 15.4772 13.0005 14.423 12.619Z" fill="white"/>
<path d="M14.0212 13.7464C13.0607 12.8973 12.0398 13.6775 11.6713 14.6012C11.6411 14.8049 11.6411 14.9971 11.6532 15.1778C11.7982 14.7705 12.1183 14.4635 12.5774 14.4893C13.0275 14.5123 13.4715 14.845 13.405 15.5565C13.251 15.6655 13.0698 15.8032 13.0698 15.8032C13.1936 15.8204 13.2721 15.72 13.3778 15.8204C13.3718 16.0269 13.3899 16.2593 13.2963 16.4601C13.55 16.4113 13.8369 16.331 14.142 16.2019C14.4924 15.6769 14.8397 14.4721 14.0212 13.7464Z" fill="#00B8F1"/>
<path d="M13.6408 14.3516C13.7223 14.4262 13.5562 14.7188 13.2693 15.0086C12.9793 15.2983 12.6803 15.4733 12.5987 15.3987C12.5142 15.3241 12.6833 15.0286 12.9702 14.7418C13.2572 14.4549 13.5592 14.2799 13.6408 14.3516Z" fill="white"/>
<path d="M16.7215 15.2324C16.6037 15.2611 16.492 15.3472 16.3712 15.3127C16.4255 15.264 16.5222 15.1492 16.6098 15.1464L16.7155 15.2296L16.7215 15.2324ZM17.1504 16.027C17.4494 16.1905 17.7152 16.3569 17.9387 16.5176C17.981 16.3913 18.0143 16.2823 18.0143 16.1877C18.0143 16.027 17.9206 15.9037 17.6246 15.7803C17.4917 15.7258 17.3256 15.6312 17.1353 15.5107C17.093 15.4849 17.0507 15.4562 17.0054 15.4275L16.7819 15.2726C16.794 15.3931 16.7819 15.5222 16.7517 15.6226C16.7306 15.6943 16.7366 15.7631 16.7578 15.8291C16.788 15.8434 16.8182 15.8578 16.8484 15.8721L17.1172 16.0098C17.1293 16.0156 17.1414 16.0213 17.1504 16.027Z" fill="white"/>
<path d="M17.0055 15.4303C17.0508 15.459 17.0931 15.4877 17.1353 15.5135L17.1504 16.0299C17.1384 16.0241 17.1293 16.0184 17.1172 16.0127L16.8484 15.875C16.8182 15.8606 16.788 15.8463 16.7578 15.8319C16.7366 15.766 16.7306 15.6971 16.7518 15.6254C16.782 15.525 16.791 15.3988 16.782 15.2754L17.0055 15.4303ZM15.6795 14.3604C15.6886 14.4694 15.6916 14.5956 15.6916 14.7247L16.0057 14.6644C15.9091 14.5812 15.7852 14.4694 15.6795 14.3604Z" fill="#00B8F1"/>
</g>
<defs>
<clipPath id="clip0">
<rect width="25" height="45" fill="white"/>
</clipPath>
</defs>
</svg>
