<svg width="19" height="20" viewBox="0 0 19 20" fill="none" xmlns="http://www.w3.org/2000/svg">
<g clip-path="url(#clip0)">
<path d="M17.1566 6.35371L16.3718 0.553281C16.3073 0.0777344 15.7537 -0.119883 15.4299 0.221992L14.2868 1.42879C12.817 0.492656 11.1483 0 9.43238 0C4.27226 0 0.129408 4.26406 0.000431136 9.70746C-0.0065986 10.005 0.198263 10.2602 0.476826 10.3025L2.69456 10.6373C3.02518 10.6882 3.33275 10.4141 3.32816 10.0491C3.28217 6.45649 6.03051 3.51563 9.43238 3.51563C10.2562 3.51563 11.0702 3.69242 11.8225 4.03059L10.7207 5.19387C10.3989 5.53359 10.5815 6.11988 11.0345 6.18836L16.5284 7.01691C16.8904 7.07453 17.2085 6.74215 17.1566 6.35371Z" fill="#00A84F"/>
<path d="M18.4666 9.7427L16.2505 9.40852C15.9642 9.37024 15.617 9.62926 15.617 10.0391C15.617 13.5931 12.8784 16.4844 9.5122 16.4844C8.69276 16.4844 7.88248 16.3093 7.13297 15.9746L8.19956 14.8485C8.52134 14.5088 8.33872 13.9225 7.88578 13.854L2.39181 13.0249C2.03097 12.9704 1.71141 13.2972 1.76365 13.6881L2.54839 19.4885C2.61299 19.9646 3.16612 20.1609 3.49034 19.8198L4.66101 18.5844C6.12379 19.512 7.79143 20 9.5122 20C14.6474 20 18.7897 15.7572 18.943 10.3407C18.9512 10.0425 18.7463 9.78505 18.4666 9.7427Z" fill="#00A84F"/>
</g>
<defs>
<clipPath id="clip0">
<rect width="18.9433" height="20" fill="white"/>
</clipPath>
</defs>
</svg>
