<svg width="18" height="16" viewBox="0 0 18 16" fill="none" xmlns="http://www.w3.org/2000/svg">
<path d="M12.7553 4.42412C12.2458 4.20696 12.0986 4.07564 12.0986 3.83851C12.0986 3.64873 12.2338 3.42703 12.6149 3.42703C12.952 3.42703 13.2105 3.56836 13.2128 3.56959C13.24 3.58502 13.2705 3.59324 13.3007 3.59324C13.3745 3.59324 13.4398 3.54578 13.4668 3.4723L13.5594 3.2206C13.5917 3.12888 13.5427 3.04897 13.4804 3.0203C13.2728 2.92424 12.8672 2.8499 12.8631 2.84913C12.8565 2.84791 12.8338 2.84275 12.8338 2.81449L12.8325 2.44936C12.8325 2.3394 12.7462 2.24988 12.6402 2.24988H12.474C12.3681 2.24988 12.2818 2.33935 12.2818 2.44941L12.2823 2.83329C12.2823 2.86272 12.2523 2.8755 12.2413 2.87821C11.7293 3.00789 11.4093 3.40669 11.4093 3.90973C11.4093 4.53684 11.8968 4.82021 12.4232 5.03293C12.844 5.2086 13.0157 5.38672 13.0157 5.64797C13.0157 5.93227 12.7726 6.13083 12.4243 6.13083C12.1269 6.13083 11.7244 5.93038 11.7204 5.92834C11.6946 5.91536 11.6673 5.90882 11.6393 5.90882C11.5627 5.90882 11.496 5.95807 11.4693 6.03436L11.3809 6.28892C11.3495 6.38396 11.3979 6.46111 11.4598 6.49545C11.707 6.63234 12.1853 6.71256 12.2066 6.71608C12.2123 6.71695 12.2414 6.72784 12.2414 6.75614V7.13834C12.2414 7.2483 12.3278 7.33782 12.4338 7.33782H12.6055C12.7116 7.33782 12.7979 7.24835 12.7979 7.13834V6.73611C12.7979 6.69851 12.824 6.69518 12.8294 6.69381C13.3748 6.56351 13.7108 6.13916 13.7108 5.60633C13.7107 5.05904 13.4249 4.7054 12.7553 4.42412Z" fill="#00A84F"/>
<path d="M12.5408 0C10.0509 0 8.03259 2.14629 8.03259 4.79373C8.03259 7.44122 10.0509 9.58757 12.5408 9.58757C15.0306 9.58757 17.049 7.44122 17.049 4.79373C17.049 2.14629 15.0306 0 12.5408 0ZM12.5408 8.47658C10.6279 8.47658 9.07736 6.82766 9.07736 4.79378C9.07736 2.7599 10.6279 1.11103 12.5408 1.11103C14.4536 1.11103 16.0041 2.7599 16.0041 4.79378C16.0041 6.82766 14.4536 8.47658 12.5408 8.47658Z" fill="#00A84F"/>
<path d="M16.1329 11.9106C15.1743 12.4732 13.8558 12.9934 12.5408 13.2127C11.3709 13.4078 9.17003 12.9373 9.17003 12.3816C9.17003 12.171 11.1003 12.9004 12.2679 12.5692C13.1633 12.3152 13.0362 11.4246 12.5492 11.3071C12.065 11.1903 9.22836 10.0853 8.01671 10.0471C7.44594 10.0292 6.03679 10.2582 5.35492 10.3763C5.12133 10.4167 4.97487 10.4123 4.96026 10.65C4.89241 11.7547 4.75868 14.0137 4.68578 15.1937C4.68424 15.2187 4.71682 15.554 4.97703 15.318C5.26184 15.0598 5.6613 14.7735 6.03078 14.8626C6.61044 15.0025 11.6253 15.9794 12.317 15.8084C13.3066 15.5638 16.1078 13.7986 16.6449 13.2499C17.4774 12.3993 16.8302 11.5013 16.1329 11.9106Z" fill="#00A84F"/>
<path d="M3.5764 10.3332L0.949252 10.1956C0.746421 10.1849 0.539265 10.3475 0.488857 10.5566L0.0111634 15.1683C-0.039196 15.3775 0.0856454 15.5555 0.288573 15.5638L3.2001 15.5635C3.40307 15.5718 3.58173 15.4025 3.5973 15.1872L3.91704 10.744C3.93252 10.5287 3.77923 10.3438 3.5764 10.3332ZM2.02977 14.9526C1.62858 14.9526 1.3034 14.6067 1.3034 14.1802C1.3034 13.7536 1.62862 13.4078 2.02977 13.4078C2.43091 13.4078 2.75614 13.7536 2.75614 14.1802C2.75614 14.6068 2.43096 14.9526 2.02977 14.9526Z" fill="#00A84F"/>
</svg>
