<svg width="17" height="19" viewBox="0 0 17 19" fill="none" xmlns="http://www.w3.org/2000/svg">
<path d="M16.57 16.5746L12.5094 12.3023C13.5535 11.0468 14.1255 9.46709 14.1255 7.82254C14.1255 3.98022 11.0353 0.854126 7.23707 0.854126C3.43884 0.854126 0.348633 3.98022 0.348633 7.82254C0.348633 11.6649 3.43884 14.791 7.23707 14.791C8.66297 14.791 10.0218 14.3559 11.1835 13.53L15.275 17.8346C15.446 18.0143 15.676 18.1134 15.9225 18.1134C16.1558 18.1134 16.3771 18.0234 16.5451 17.8598C16.9021 17.5123 16.9135 16.936 16.57 16.5746ZM7.23707 2.67197C10.0446 2.67197 12.3285 4.98246 12.3285 7.82254C12.3285 10.6626 10.0446 12.9731 7.23707 12.9731C4.42958 12.9731 2.14562 10.6626 2.14562 7.82254C2.14562 4.98246 4.42958 2.67197 7.23707 2.67197Z" fill="#A0A4A8"/>
</svg>
