<svg width="20" height="17" viewBox="0 0 20 17" fill="none" xmlns="http://www.w3.org/2000/svg">
<path fill-rule="evenodd" clip-rule="evenodd" d="M14.5342 11.781C15.7693 10.4305 16.3514 8.73168 16.1621 7.03011C15.9727 5.32854 15.0261 3.75206 13.5149 2.62139C12.0036 1.49072 10.0412 0.890786 8.02684 0.943648C6.01251 0.996511 4.09758 1.69819 2.67163 2.90595C1.24444 4.11454 0.414351 5.73918 0.35053 7.44879C0.286708 9.1584 0.993955 10.8243 2.32814 12.1071C3.66233 13.3898 5.52305 14.1928 7.53112 14.3525C9.53918 14.5121 11.5435 14.0164 13.1355 12.9663L13.1781 13.0041L17.3799 16.5684C17.472 16.6465 17.5812 16.7084 17.7015 16.7506C17.8217 16.7929 17.9506 16.8146 18.0807 16.8146C18.2109 16.8146 18.3398 16.7929 18.46 16.7506C18.5802 16.7084 18.6895 16.6465 18.7815 16.5684C18.8736 16.4904 18.9466 16.3977 18.9964 16.2957C19.0462 16.1938 19.0718 16.0845 19.0718 15.9741C19.0718 15.8637 19.0462 15.7544 18.9964 15.6524C18.9466 15.5505 18.8736 15.4578 18.7815 15.3798L14.5787 11.8163C14.5643 11.8042 14.5494 11.7924 14.5342 11.781ZM12.4778 4.09461C13.0371 4.56124 13.4819 5.11715 13.7865 5.73029C14.0912 6.34343 14.2497 7.00165 14.2528 7.667C14.256 8.33234 14.1039 8.99164 13.8051 9.60686C13.5064 10.2221 13.0669 10.7811 12.5122 11.2515C11.9574 11.722 11.2983 12.0947 10.5729 12.348C9.84748 12.6014 9.07008 12.7305 8.28555 12.7277C7.50102 12.725 6.72488 12.5906 6.00191 12.3322C5.27894 12.0739 4.62344 11.6967 4.07322 11.2224C2.97366 10.2746 2.36026 8.99664 2.36665 7.667C2.37303 6.33736 2.99868 5.06372 4.10731 4.12352C5.21593 3.18331 6.71772 2.65272 8.28555 2.6473C9.85337 2.64189 11.3602 3.1621 12.4778 4.09461Z" fill="#00A84F"/>
</svg>
