<svg width="13" height="7" viewBox="0 0 13 7" fill="none" xmlns="http://www.w3.org/2000/svg">
<path d="M6.01765 0.464584C6.21782 0.464159 6.41181 0.53987 6.56594 0.678575L11.7061 5.33055C11.8811 5.48847 11.9911 5.71541 12.012 5.96143C12.0329 6.20745 11.9629 6.45241 11.8175 6.64241C11.6721 6.83241 11.4631 6.9519 11.2366 6.97458C11.0101 6.99726 10.7845 6.92128 10.6096 6.76336L6.01765 2.59519L1.42573 6.6145C1.3381 6.69178 1.23727 6.74949 1.12904 6.78432C1.0208 6.81915 0.907297 6.8304 0.795045 6.81743C0.682793 6.80446 0.574006 6.76753 0.47494 6.70875C0.375875 6.64997 0.288481 6.57051 0.217784 6.47494C0.139327 6.37927 0.0799075 6.26704 0.0432473 6.14528C0.00658616 6.02351 -0.00652304 5.89484 0.00473605 5.76732C0.0159961 5.63979 0.0513831 5.51617 0.108682 5.40419C0.16598 5.29221 0.243957 5.19429 0.337723 5.11656L5.47793 0.622752C5.63649 0.505972 5.82652 0.450283 6.01765 0.464584Z" fill="#00A84F"/>
</svg>
