<svg width="20" height="20" viewBox="0 0 20 20" fill="none" xmlns="http://www.w3.org/2000/svg">
<path d="M19.1065 16.3216C18.6077 15.1989 17.8837 14.1792 16.9751 13.3191C16.0691 12.4566 14.996 11.7689 13.8149 11.294C13.8043 11.2889 13.7937 11.2864 13.7832 11.2814C15.4307 10.1508 16.5017 8.30904 16.5017 6.23116C16.5017 2.78894 13.5663 0 9.94335 0C6.3204 0 3.38501 2.78894 3.38501 6.23116C3.38501 8.30904 4.45603 10.1508 6.10355 11.2839C6.09297 11.2889 6.0824 11.2915 6.07182 11.2965C4.88709 11.7714 3.824 12.4523 2.91165 13.3216C2.00382 14.1823 1.28001 15.2019 0.780191 16.3241C0.289168 17.4227 0.0243477 18.6006 6.61281e-05 19.794C-0.0006397 19.8208 0.00431086 19.8475 0.0146262 19.8724C0.0249416 19.8974 0.040413 19.9202 0.0601289 19.9394C0.0798447 19.9586 0.103406 19.9738 0.129424 19.9842C0.155443 19.9946 0.183392 20 0.211625 20H1.79832C1.91468 20 2.00723 19.9121 2.00988 19.804C2.06277 17.8643 2.88256 16.0477 4.33174 14.6709C5.83117 13.2462 7.82247 12.4623 9.94335 12.4623C12.0642 12.4623 14.0555 13.2462 15.555 14.6709C17.0041 16.0477 17.8239 17.8643 17.8768 19.804C17.8795 19.9146 17.972 20 18.0884 20H19.6751C19.7033 20 19.7313 19.9946 19.7573 19.9842C19.7833 19.9738 19.8069 19.9586 19.8266 19.9394C19.8463 19.9202 19.8618 19.8974 19.8721 19.8724C19.8824 19.8475 19.8873 19.8208 19.8866 19.794C19.8602 18.593 19.5984 17.4246 19.1065 16.3216ZM9.94335 10.5528C8.72953 10.5528 7.58711 10.103 6.72765 9.28643C5.86819 8.46985 5.39483 7.38442 5.39483 6.23116C5.39483 5.07789 5.86819 3.99246 6.72765 3.17588C7.58711 2.3593 8.72953 1.90955 9.94335 1.90955C11.1572 1.90955 12.2996 2.3593 13.1591 3.17588C14.0185 3.99246 14.4919 5.07789 14.4919 6.23116C14.4919 7.38442 14.0185 8.46985 13.1591 9.28643C12.2996 10.103 11.1572 10.5528 9.94335 10.5528Z" fill="#00A84F"/>
</svg>
