<svg width="15" height="20" viewBox="0 0 15 20" fill="none" xmlns="http://www.w3.org/2000/svg">
<path d="M11.0859 0.585938V2.53906C11.0859 2.8625 10.8372 3.125 10.5309 3.125H4.36026C4.05391 3.125 3.80528 2.8625 3.80528 2.53906V0.585938C3.80528 0.2625 4.05391 0 4.36026 0H10.5309C10.8372 0 11.0859 0.2625 11.0859 0.585938Z" fill="#00A84F"/>
<path d="M14.3362 1.17188H12.1958V2.53906C12.1958 3.5082 11.4488 4.29688 10.5309 4.29688H4.36028C3.44235 4.29688 2.69535 3.5082 2.69535 2.53906V1.17188H0.554979C0.24863 1.17188 0 1.43438 0 1.75781V19.4141C0 19.7375 0.24863 20 0.554979 20H14.3362C14.6426 20 14.8912 19.7375 14.8912 19.4141V1.75781C14.8912 1.43438 14.6426 1.17188 14.3362 1.17188ZM8.50164 16.6459H2.77471C2.46821 16.6459 2.21973 16.3836 2.21973 16.06C2.21973 15.7364 2.46821 15.4741 2.77471 15.4741H8.50164C8.80814 15.4741 9.05662 15.7364 9.05662 16.06C9.05662 16.3836 8.80814 16.6459 8.50164 16.6459ZM8.50164 12.5053H2.77471C2.46821 12.5053 2.21973 12.243 2.21973 11.9194C2.21973 11.5958 2.46821 11.3334 2.77471 11.3334H8.50164C8.80814 11.3334 9.05662 11.5958 9.05662 11.9194C9.05662 12.243 8.80814 12.5053 8.50164 12.5053ZM8.50164 8.32562H2.77471C2.46821 8.32562 2.21973 8.06328 2.21973 7.73969C2.21973 7.41609 2.46821 7.15375 2.77471 7.15375H8.50164C8.80814 7.15375 9.05662 7.41609 9.05662 7.73969C9.05662 8.06328 8.80814 8.32562 8.50164 8.32562ZM12.5089 16.5494C12.7256 16.7782 12.7256 17.1492 12.5089 17.378C12.2921 17.6069 11.9407 17.6069 11.724 17.378L11.2605 16.8886L10.7969 17.378C10.5802 17.6069 10.2288 17.6069 10.0121 17.378C9.79533 17.1492 9.79533 16.7782 10.0121 16.5494L10.4756 16.06L10.0121 15.5706C9.79533 15.3418 9.79533 14.9708 10.0121 14.742C10.2288 14.5131 10.5802 14.5131 10.7969 14.742L11.2605 15.2314L11.724 14.742C11.9407 14.5131 12.2921 14.5131 12.5089 14.742C12.7256 14.9708 12.7256 15.3418 12.5089 15.5706L12.0453 16.06L12.5089 16.5494ZM12.5089 12.4088C12.7256 12.6376 12.7256 13.0086 12.5089 13.2374C12.2921 13.4663 11.9407 13.4662 11.724 13.2374L11.2605 12.748L10.7969 13.2374C10.5802 13.4663 10.2288 13.4662 10.0121 13.2374C9.79533 13.0086 9.79533 12.6376 10.0121 12.4088L10.4756 11.9194L10.0121 11.43C9.79533 11.2011 9.79533 10.8302 10.0121 10.6013C10.2288 10.3725 10.5802 10.3725 10.7969 10.6013L11.2605 11.0907L11.724 10.6013C11.9407 10.3725 12.2921 10.3725 12.5089 10.6013C12.7256 10.8302 12.7256 11.2011 12.5089 11.43L12.0453 11.9194L12.5089 12.4088ZM12.5089 8.2291C12.7256 8.45793 12.7256 8.82891 12.5089 9.05773C12.2921 9.2866 11.9407 9.28656 11.724 9.05773L11.2605 8.56832L10.7969 9.05773C10.5802 9.2866 10.2288 9.28656 10.0121 9.05773C9.79533 8.82891 9.79533 8.45793 10.0121 8.2291L10.4756 7.73969L10.0121 7.25027C9.79533 7.02145 9.79533 6.65047 10.0121 6.42164C10.2288 6.19281 10.5802 6.19281 10.7969 6.42164L11.2605 6.91105L11.724 6.42164C11.9407 6.19281 12.2921 6.19281 12.5089 6.42164C12.7256 6.65047 12.7256 7.02145 12.5089 7.25027L12.0453 7.73969L12.5089 8.2291Z" fill="#00A84F"/>
</svg>
