<svg width="19" height="20" viewBox="0 0 19 20" fill="none" xmlns="http://www.w3.org/2000/svg">
<g clip-path="url(#clip0)">
<path d="M14.0046 12.3917L15.4104 11.0959C15.6566 10.8692 15.6827 10.4742 15.4672 10.2142C15.2525 9.95419 14.8784 9.92752 14.6313 10.1542L12.0416 12.5409C11.9138 12.6592 11.8396 12.8309 11.8396 13.0117C11.8396 13.1925 11.9138 13.3642 12.0424 13.4825L14.6321 15.8684C14.745 15.9717 14.8831 16.0225 15.0213 16.0225C15.1862 16.0225 15.3504 15.95 15.4672 15.8084C15.6819 15.5484 15.6566 15.1534 15.4104 14.9267L14.0228 13.6484C16.0923 13.7142 17.7586 15.5384 17.7586 17.7834V19.3742C17.7586 19.7192 18.0238 19.9992 18.3505 19.9992C18.6773 19.9992 18.9433 19.72 18.9433 19.375V17.7842C18.9433 14.8417 16.7364 12.4459 14.0046 12.3917Z" fill="#00A84F"/>
<path d="M7.27738 0L3.44136 0.0166667C2.9441 0.0166667 2.47841 0.308333 2.24162 0.766667L0.236786 4.6L6.89062 4.58333L7.27738 0Z" fill="#00A84F"/>
<path d="M15.5335 4.56661L13.505 0.733276C13.2603 0.274943 12.8025 -0.0167236 12.2974 -0.0167236L8.46133 -5.69671e-05L8.86388 4.58328L15.5335 4.56661Z" fill="#00A84F"/>
<path d="M15.7848 8.48335C15.5481 8.38335 15.2876 8.33335 15.0192 8.33335C14.4983 8.33335 13.9931 8.53335 13.5906 8.90002L11.0017 11.2833C10.5281 11.7167 10.2597 12.35 10.2597 13.0083C10.2597 13.675 10.5281 14.3 11.0017 14.7417L13.0854 16.6583L1.26955 16.6917C1.26165 16.6917 1.26165 16.6917 1.26165 16.6917C0.582853 16.6917 0.0224474 16.1 0.0224474 15.375L-0.00912476 5.85002L7.29194 5.83335H8.47589L15.777 5.80835L15.7848 8.48335Z" fill="#00A84F"/>
</g>
<defs>
<clipPath id="clip0">
<rect width="18.9433" height="20" fill="white"/>
</clipPath>
</defs>
</svg>
