<svg width="18" height="20" viewBox="0 0 18 20" fill="none" xmlns="http://www.w3.org/2000/svg">
<path d="M15.2752 15.2427L14.5139 3.98845C14.4667 3.26333 13.9437 2.69556 13.3239 2.69556H11.82V5.3095C11.82 5.63321 11.5967 5.89524 11.3207 5.89524C11.0451 5.89524 10.8214 5.63321 10.8214 5.3095V2.69556H6.22781V5.3095C6.22781 5.63321 6.00411 5.89524 5.7285 5.89524C5.45255 5.89524 5.22918 5.63321 5.22918 5.3095V2.69556H3.72528C3.10549 2.69556 2.58253 3.26333 2.53528 3.98688L1.77367 15.2443C1.71477 16.1459 1.98139 17.0432 2.50498 17.7063C3.0286 18.3693 3.7709 18.75 4.5415 18.75H12.5078C13.2784 18.75 14.0207 18.3693 14.5443 17.7063C15.0679 17.0432 15.3345 16.1459 15.2752 15.2427ZM10.7742 9.51149L8.19174 12.5409C8.09421 12.6553 7.96638 12.7127 7.83857 12.7127C7.71074 12.7127 7.58294 12.6553 7.48541 12.5409L6.2751 11.1211C6.08003 10.8923 6.08003 10.5217 6.2751 10.2929C6.47016 10.064 6.7864 10.064 6.98113 10.2929L7.83861 11.2984L10.0682 8.6829C10.2629 8.45446 10.5791 8.45446 10.7742 8.6829C10.9692 8.91173 10.9692 9.28267 10.7742 9.51149Z" fill="#00A84F"/>
<path d="M8.62323 0C6.80609 0 5.32782 1.185 5.32782 2.64132V2.69547H6.32645V2.64132C6.32645 1.62624 7.35668 0.800309 8.62327 0.800309C9.88985 0.800309 10.9201 1.62624 10.9201 2.64132V2.69547H11.9187V2.64132C11.9186 1.185 10.4404 0 8.62323 0Z" fill="#00A84F"/>
</svg>
